<?xml version="1.0" standalone="no"?>
<!DOCTYPE svg PUBLIC "-//W3C//DTD SVG 1.1//EN" "http://www.w3.org/Graphics/SVG/1.1/DTD/svg11.dtd" >
<svg xmlns="http://www.w3.org/2000/svg">
<metadata>Generated by IcoMoon</metadata>
<defs>
<font id="icomoon" horiz-adv-x="1024">
<font-face units-per-em="1024" ascent="960" descent="-64" />
<missing-glyph horiz-adv-x="1024" />
<glyph unicode="&#x20;" horiz-adv-x="512" d="" />
<glyph unicode="&#xe900;" glyph-name="peli" d="M713.4 740.7c9.4-11.5 25.9 9.4 25.9 9.4l5.8 3.6c2.2 2.2 0 3.6-2.2 3.6s-5.8 0-9.4 2.2c-9.4 2.2-28.1-5.8-22.3-16.6 0.1-2.2 2.2-2.2 2.2-2.2zM942.4 815.5c-37.4-9.4-112.3-41-182.2-11.5-101.5 39.6-140.4-73.5-148.3-105.1-7.2-30.2-78.5-253.5-468.8 131.1-11.5 11.5-28.1 3.6-25.9-11.5 5-132.5 125.3-260 125.3-260s279.4-311.1-123.9-382.4c-82.8-18.7-37.4-41-18.7-49 7.2-2.2 13-7.2 18.7-13 7.2-7.2 11.5-18.7 0-31.7-22.3-22.3-52.6-58.3 33.8-46.8 86.4 13 639.5 80.7 660.4 474.6 10.8 224.7 95.8 252.8 136.8 292.4 5.8 5.7 0 15.1-7.2 12.9zM740.8 768.7c9.4 0 15.1-2.2 20.9-2.2 2.2-1.4 4.3-5 2.2-7.2l-12.2-15.8c0 0-31.7-37.4-50.4-16.6-1.4 2.2-1.4 3.6-3.6 5.8-11.6 26.7 26.5 39.6 43.1 36zM197.1 63c-2.2 0-3.6 2.2-5.8 2.2-5.8 15.1-13 61.9 74.9 103 247.7 93.6 319 279.4 343.5 350.7 30.2 82.8 67.7 144.7 123.9 93.6 154.1-140.5-33.8-473.9-536.5-549.5zM386.5 795.4c-9.4 97.2 36 78.5 58.3 31.7v-2.2c25.9-44.6 52.6-85.7 108.7-131.1 7.9-7.2 11.5-18.7 5.8-28.1-24.5-46.8-99.4-22.3-120.3-15.1-3.6 1.4-7.2 3.6-7.2 9.4-9.3 13.7-39.5 56.9-45.3 135.4z" />
<glyph unicode="&#xe901;" glyph-name="calendar" d="M320.7 515.3v0l-63.8-0.1c-16.7-0.4-28.1-11.9-27.7-28.1 0.3-15.7 11.8-26.5 28.4-26.9h61.9c17.3 0.3 29.3 11.5 29.3 27.3 0 15.6-12.1 27.6-28.1 27.8zM703.1 320.2h0.1l62.5 0.1c16 0.2 28.3 11.8 28.7 27.1v0c0.2 7.4-2.4 14.1-7.3 19.3-5.3 5.5-13 8.6-21.5 8.8-4 0.1-59.8 0-61.7 0h-0.1c-16.7-0.3-28.3-10.8-28.9-26.2-0.3-7.7 2.3-14.9 7.4-20.2 5-5.7 12.5-8.8 20.8-8.9zM320.5 235.8v0c-21.5 0.4-42.5 0.4-62.7 0.1-8.4-0.1-16-3.2-21.3-8.7-5-5.2-7.6-12.3-7.4-19.9 0.4-15.5 11.9-26.2 28.6-26.6h61.9c16.9 0.3 29.2 11.8 29.2 27.4 0 15.5-12.2 27.4-28.3 27.7zM661.7 794.4h-298.8c0 0-27-2.5-27-29s27-26.5 27-26.5h298.8c0 0 27 1.5 27 28.4s-27 27.1-27 27.1zM481.4 320.2h0.1l61.5 0.1c16 0.2 28.3 11.8 28.7 27.1v0c0.2 7.4-2.4 14.1-7.3 19.3-5.3 5.5-13 8.6-21.5 8.8-4 0.1-58.8 0-60.7 0h-0.1c-16.7-0.3-28.3-10.8-28.9-26.2-0.3-7.7 2.3-14.9 7.4-20.2 5-5.7 12.5-8.8 20.8-8.9zM257.6 320.2h0.1l62.5 0.1c16 0.2 28.3 11.8 28.7 27.1v0c0.2 7.4-2.4 14.1-7.3 19.3-5.3 5.5-13 8.6-21.5 8.8-4 0.1-59.8 0-61.7 0h-0.1c-16.7-0.3-28.3-10.8-28.9-26.2-0.3-7.7 2.3-14.9 7.4-20.2 5-5.7 12.5-8.8 20.8-8.9zM766.2 515.3v0l-63.8-0.1c-16.7-0.4-28.1-11.9-27.7-28.1 0.3-15.7 11.8-26.5 28.4-26.9h61.9c17.3 0.3 29.3 11.5 29.3 27.3 0.1 15.6-12 27.6-28.1 27.8zM934.1 725.9c-0.1 41.6-26.9 68.5-68.2 68.6h-38.4c0 0-27-2.5-27-29s27-26.4 27-26.4h42.5c5.2 0 8.6-3.2 8.6-8 0.3-23.6 0.2-48 0.2-69.6v-15.1h-733.5v18c-0.1 23-0.1 44.7 0.2 66.8 0.1 5.2 3.5 7.9 10.3 7.9h41.5c0 0 27-2.5 27 26.5s-27 29-27 29h-40.4c-19.5 0-36.2-6.5-48.3-18.7s-18.6-29-18.6-48.5v-606.3c0-19.5 6.4-36.3 18.6-48.5s28.9-18.7 48.3-18.7h246.1c3 0 6 0 9.4 0h453.6c41.4 0 68.1 26.9 68.2 68.6v487.7zM878.6 117.2c-0.1-4.9-3.4-8-8.6-8h-713.3c-3.5 0.2-6.1 0.6-7.7 1.4-0.6 0.4-1.2 0.8-1.6 1.3-0.9 1.2-1.6 3.5-1.9 6.7-0.2 21.6-0.2 42.8-0.1 65.3l-0.1 0.9v405.1h733.6c-0.1-92.6-0.1-451.7-0.3-472.7zM543.3 235.8v0c-21.5 0.4-41.5 0.4-61.7 0.1-8.4-0.1-16-3.2-21.3-8.7-5-5.2-7.6-12.3-7.4-19.9 0.4-15.5 11.9-26.2 28.6-26.6h60.9c16.9 0.3 29.2 11.8 29.2 27.4 0 15.5-12.1 27.4-28.3 27.7zM766 235.8v0c-21.5 0.4-42.5 0.4-62.7 0.1-8.4-0.1-16-3.2-21.3-8.7-5-5.2-7.6-12.3-7.4-19.9 0.4-15.5 11.9-26.2 28.6-26.6h61.9c16.9 0.3 29.2 11.8 29.2 27.4 0 15.5-12.1 27.4-28.3 27.7zM543.5 515.3v0l-62.8-0.1c-16.7-0.4-28.1-11.9-27.7-28.1 0.3-15.7 11.8-26.5 28.4-26.9h60.9c17.3 0.3 29.3 11.5 29.3 27.3 0.1 15.6-12 27.6-28.1 27.8zM252.5 812.1v0l0.1-93.6v-0.2c0.4-16.7 11.9-28.1 28.1-27.7 15.7 0.3 26.5 11.8 26.9 28.4v91.9c-0.3 17.3-11.5 29.3-27.3 29.3-15.6 0.1-27.5-12-27.8-28.1zM717 814.1v0l0.1-93.6v-0.2c0.4-16.7 11.9-28.1 28.1-27.7 15.7 0.3 26.5 11.8 26.9 28.4v91.9c-0.3 17.3-11.5 29.3-27.3 29.3-15.6 0.1-27.5-12-27.8-28.1z" />
<glyph unicode="&#xe902;" glyph-name="schedule" d="M329.2 373.6c-8.3 0.1-15.7 3.2-21 8.7-5.1 5.3-7.7 12.5-7.4 20.2 0.5 14.3 10.6 24.4 25.3 26 0.6 0.1 1.3 0.2 2 0.2v0h0.4c0 0 0 0 0 0h1.4c16.7-0.3 28.3-10.8 28.9-26.3 0.3-7.7-2.3-14.9-7.4-20.2-5.3-5.5-12.7-8.6-21-8.7h-1.2zM410.6 142.9c-0.5-15.2-13.3-26.7-29.9-26.8-13.6-0.1-21.5-0.1-29.2-0.1l-244.1 0.1c-41.8 0-68.9 27-68.9 68.8v604.7c0 19.5 6.4 36.3 18.6 48.5s28.9 18.7 48.3 18.7h709.1c41.4 0 68.1-26.9 68.2-68.6v-143.3c-0.3-18.3-11.7-31.1-27.7-31.1-16.5 0.2-27.6 12.8-27.6 31.5v6.9h-733.6v-465.9c0-6.6 0.8-10.8 2.4-12.5 1.6-1.6 5.6-2.4 12-2.4l271.6 0.1c18.6-0.6 31.3-12.3 30.8-28.6zM93.9 726.6v-18h733.4v15.1c0.1 21.6 0.1 46-0.2 69.6-0.1 4.9-3.4 8-8.6 8h-714.3c-6.7 0-10.2-2.7-10.3-7.9-0.1-22.1-0.1-43.8 0-66.8zM300.8 260.7c0.4-15.3 12.2-26.3 28.6-26.6h6c16.4 0.4 28.2 11.4 28.6 26.6 0.2 7.6-2.4 14.6-7.4 19.8-5.3 5.5-12.8 8.6-21.3 8.7h-5.7c-8.4-0.1-16-3.2-21.3-8.7-5-5.2-7.7-12.2-7.5-19.8zM381.2 513.6c17.3 0.3 29.3 11.5 29.3 27.3 0 15.5-12.1 27.5-28.2 27.8h-0.1l-53.7-0.1c-16.7-0.4-28.1-11.9-27.7-28.1 0.3-15.7 11.8-26.5 28.4-26.9h51.8zM985.3 319.5c-2.5-160.6-137.3-291.4-300.4-291.4l-5.3 0.1c-159.8 2.7-292.4 141-289.8 301.9 2.7 161.9 134.7 293.6 294.3 293.6h4.6c81.6-1.3 157.1-33.3 212.6-90.2v0c55.5-57 85.3-132.9 84-214zM688.5 568.2h-1c-136.1-0.6-242.5-107.5-242.3-243.5 0.3-132.3 108-240.4 240.2-241.1 66.6 0 128.3 25.1 173.8 70.7 45.8 45.9 71 107.8 70.9 174.2-0.3 132.2-108.7 239.7-241.6 239.7zM717.7 503.4c0 23.4-14.4 31.7-27.8 31.7h-0.1c-16.6-0.2-27.3-12.5-27.3-31.2-0.1-52.3-0.1-108.2 0-176 0-18.2 11.7-29.9 29.9-29.9l176.4 0.3c3.4 0 7.3 0.1 11.4 0.9 14.3 3.1 22.9 14.3 21.9 28.7-1 14.1-10.3 23.8-24.4 25.3-3.3 0.4-6.7 0.4-9.8 0.4h-150.1v149.8zM153.8 260.7c0.4-15.5 11.9-26.2 28.6-26.6h51.9c16.9 0.3 29.2 11.8 29.2 27.4 0 15.4-12.2 27.3-28.3 27.6v0c-21.4 0.4-32.4 0.4-52.7 0.1-8.4-0.1-16-3.2-21.3-8.7-5-5.2-7.6-12.2-7.4-19.8zM235.3 568.7v0l-53.8-0.1c-16.7-0.4-28.1-11.9-27.7-28.1 0.3-15.7 11.8-26.5 28.4-26.9h51.9c17.3 0.3 29.3 11.5 29.3 27.3 0 15.6-12.1 27.5-28.1 27.8zM182.2 373.6h0.1l52.5 0.1c16 0.2 28.3 11.8 28.7 27.1v0c0.2 7.4-2.4 14.1-7.3 19.3-5.3 5.5-13 8.6-21.5 8.8-4 0.1-49.8 0-51.7 0h-0.1c-16.7-0.3-28.3-10.8-28.9-26.2-0.3-7.7 2.3-14.9 7.4-20.2 5-5.7 12.5-8.8 20.8-8.9zM181.9 727.4c15.5 0 28.1 12.6 28.1 28.1s-12.6 28.1-28.1 28.1c-15.5 0-28.1-12.6-28.1-28.1s12.6-28.1 28.1-28.1zM739.4 727.4c15.5 0 28.1 12.6 28.1 28.1s-12.6 28.1-28.1 28.1c-15.5 0-28.1-12.6-28.1-28.1s12.6-28.1 28.1-28.1z" />
<glyph unicode="&#xe903;" glyph-name="profile" d="M951.3 631.7c-23.9 56.6-58.2 107.5-101.9 151.1-43.7 43.7-94.5 77.9-151.1 101.9-58.6 24.8-120.9 37.4-185.1 37.4s-126.5-12.6-185.1-37.4c-56.6-23.9-107.5-58.2-151.1-101.8-43.7-43.7-78-94.5-101.9-151.2-24.8-58.6-37.4-120.9-37.4-185.1 0-63.7 12.4-125.6 36.9-183.9 23.6-56.1 57.4-106.7 100.4-150.3l0.3-0.3c43.7-44.1 94.7-78.8 151.6-103.1 59-25.2 121.7-37.9 186.3-37.9 64.7 0 127.5 12.8 186.6 38 57 24.4 108.1 59.2 151.8 103.5l0.1 0.1c43 43.6 76.7 94.1 100.3 150.3 24.4 58.2 36.8 120 36.8 183.6-0.1 64.2-12.7 126.5-37.5 185.1zM386.8 184.1c19.6 7.1 39.8 14.4 59.2 21.7 11.3 4.3 18.9 15.3 18.9 27.4v97c0 12.8-7.9 23.9-19.7 27.7-3.6 1.5-38.5 18.1-38.5 88.7 0 13.8-9.7 25.5-22.6 28.5-0.7 2.2-1.4 5.7-1.4 10.3s0.7 8.1 1.4 10.3c12.9 3.1 22.6 14.7 22.6 28.5 0 6.2-1.5 11.7-4.9 23.8-3.8 13.5-9.5 33.9-11.6 52.7-2.7 24.5 2.5 30.5 2.6 30.5 0.6 0.6 5.5 2.4 17.7 0 15.4-3.1 30.4 6.4 34.2 21.6 4.4 17.7 42.2 36 97.7 36s93.2-18.3 97.7-36c8.2-32.9-7-80.4-14.3-103.2-4-12.4-6-18.6-6-25.5 0-13.8 9.7-25.5 22.6-28.5 0.7-2.2 1.4-5.7 1.4-10.3s-0.7-8.1-1.4-10.3c-12.9-3.1-22.6-14.7-22.6-28.5 0-70.6-34.9-87.2-38.5-88.7-11.8-3.8-19.7-14.9-19.7-27.7v-97c0-12.1 7.6-23.2 19-27.4 21.1-7.9 42.2-15.6 62.6-22.9l0.3-0.1c52.2-18.9 101.9-36.8 138.4-54.9-31.6-26.7-66.9-48.5-105-64.8-51.9-22-106.9-33.2-163.7-33.2-56.7 0-111.6 11.2-163.3 33.2-38.1 16.2-73.3 37.9-104.8 64.4 38.6 19.3 90.9 38.3 141.7 56.7zM620.1 313c9.8 6.8 22.2 17.8 33 34.7 13.8 21.7 22 48.2 24.5 79.1 15.6 11.7 24.8 33.1 24.8 58.7 0 22-6.7 40.9-18.7 53.3 9.8 31.1 24.6 82.8 13.2 128.4-6.9 27.4-28.3 49.4-61.9 63.6-25.8 10.9-58.7 16.8-92.6 16.8s-66.8-6-92.6-16.8c-23.2-9.8-40.4-23-51.3-39.5-20.2-0.2-36.5-6.9-48.7-20-31.4-33.9-16.6-95-6.4-131.8-12.3-12.3-19.3-31.5-19.3-53.9 0-25.5 9.2-47 24.8-58.7 5.2-66.4 36.1-99 57.4-113.7v-59.5c-13-4.8-26.4-9.7-39.3-14.4h-0.1c-60-21.8-122-44.2-165.8-68.8-67.6 76.2-104.7 174-104.7 276.2 0 56.3 11 110.9 32.7 162.3 21 49.6 51.1 94.2 89.3 132.5 38.3 38.3 82.9 68.4 132.5 89.3 51.4 21.7 106 32.7 162.3 32.7s110.9-11 162.3-32.7c49.6-21 94.2-51.1 132.5-89.3 38.3-38.3 68.3-82.9 89.3-132.5 21.7-51.4 32.7-106 32.7-162.3 0-102-37-199.6-104.2-275.7-41 23-97.6 43.5-162.5 67-14.1 5.1-28.6 10.4-43.2 15.7v59.3z" />
<glyph unicode="&#xe904;" glyph-name="settings" d="M979.8 805.4v0c-22.6 22.7-45.6 45.6-67.8 67.7-16.8 16.8-33 16.9-49.7 0.5-16.9-16.8-34-34-50.4-50.6l-9.9-10c-22.8-23.1-30.7-49.5-21.8-72.3 7.9-20.4 0.2-28.9-16.8-44.5l-1.4-1.3c-4.3-4-8.4-8.1-12.4-12.2-1.7-1.8-3.5-3.5-5.2-5.3-48.5-48.8-96.9-97.6-147.5-148.6-5.3 5.4-10.5 10.6-15.7 15.9-20.4 20.5-39.6 39.9-58.3 60-2.9 3.1-5.1 10-4.6 14.4 5.3 44.4-0.1 87.1-16.1 127.1-15 37.5-39.2 71-70 96.9-30.2 25.2-66.4 43-104.7 51.3-40.8 8.8-82.6 6.9-124.1-5.6-12-3.6-28.4-10-32-24.2-3.5-14 7.5-27.1 16.1-35.7 5.1-5.2 10.2-10.3 15.4-15.5 25.2-25.4 51.2-51.6 77.4-77 6.6-6.3 7.7-9.9 5.4-16.9-2.6-7.6-4.2-15.8-5.8-23.7-2.8-13.9-5.4-27.1-12.3-33.9-7-7-20.3-9.5-34.5-12.2-7.8-1.5-15.8-3-23.3-5.4-6.4-2-9.5-1.1-14.5 4-30 30.9-60.1 60.9-96.1 96.5-11.9 11.8-23.2 16.4-33.5 13.9-10.3-2.6-18.1-12-23-28-19.4-62.7-15.3-123.9 12.1-181.9 22.3-47.3 59-85.4 106-110.2 46.8-24.7 99.3-33.7 152-26.3 3.1 0.4 8-1 11.5-3.3 6.5-4.2 12.6-9.4 19-14.8 0.7-0.6 1.3-1.1 2-1.7-3.7-2-7.7-4.4-11.1-7.8-30.7-30.4-61.7-61.4-91.7-91.4-23.3-23.3-47.4-47.4-71.2-71.1-25.3-25.3-41.3-55-47.3-88.4-5.2-28.7 0.5-56.4 16-78 15.1-21 38.5-34.8 65.9-38.9 6.6-1 13.1-1.5 19.5-1.5 36.6 0 70.5 15.8 103.2 48 35.8 35.3 71.9 71.5 106.8 106.6 18.8 18.8 38.2 38.3 57.3 57.3 2.2 2.2 4.4 4.3 6.8 6.5 2-1.8 3.7-3.5 5.5-5.2 16.2-16.2 32.4-32.4 48.6-48.6 43.8-43.9 89.2-89.3 134-133.7 13.6-13.4 25.4-22.9 37.3-29.6 20.6-11.6 43.8-17.6 67.3-17.6 9.3 0 18.7 0.9 27.9 2.9 32.4 6.7 61.5 24.8 81.9 51 20.5 26.3 30.9 59.2 29.1 92.4-1.8 33.5-15.8 65.2-39.4 89.4-43.2 44.2-87.7 88.4-130.7 131.2-12.7 12.7-25.5 25.3-38.2 38-22.5 22.4-44.7 44.3-68.2 67.4-6.1 6-12.1 11.9-18.3 18 11.5 11.5 23 22.9 34.4 34.2 52.6 52.4 102.2 101.9 153.1 152 1.4 0.7 5 1 6.4 0.5 34.4-12.4 65.3-5.6 91.9 20.5 17.1 16.8 35.5 35.2 58 58 17.7 18 17.6 32.7-0.3 50.8zM921.7 779.6c-3.2-3.4-6.4-6.8-9.5-10.2-11.8-12.6-23.9-25.7-36.8-37.1-10.3-9-25.3-5-33.4 3.9-9.1 10-9.6 25.1-1.1 34.3 11.6 12.5 24 24.5 36 36.1 2.9 2.8 5.9 5.7 8.9 8.6 6.5-6.4 12.8-12.7 19.2-18.9 5.4-5.6 11.1-11.2 16.7-16.7zM456.7 270.2c-5.6-5.4-11.3-10.8-17.2-16.4-14.5-13.9-29.6-28.2-44.3-42.8-12.2-12-24.3-24.3-36.1-36.3-23-23.4-46.8-47.6-71.6-69.8-15.3-13.8-35.1-24.7-54.2-30-16.7-4.6-32.3-1.3-42.6 9-10.6 10.6-13.9 26.5-9.1 43.7 5.4 19.3 14.9 37 26 48.6 42.5 44.6 87.1 88.8 130.3 131.6 13.4 13.3 27.3 27.1 40.9 40.7 14.4-14.5 28.7-28.9 43.3-43.6 11.3-11.3 22.8-22.8 34.6-34.7zM322.6 636.2c7.8 30.9 16.2 61.4 23.4 87.1 4.3 15.4 0.6 28.3-11.1 39.5-20.1 19.3-40.1 39.5-59.4 59-5.3 5.3-10.5 10.6-15.8 15.9-1 1-2.1 2.1-3.1 3.2 28.2 3 54.3-0.1 80.8-9.3 43.1-15.1 79-45.1 101.3-84.5s29.4-85.7 19.9-130.1c-3.7-17.2 0.3-30.6 13.1-43.2 111-110.5 223.6-223.2 332.4-332.1l41.1-41.1c17.7-17.7 27.9-39.4 28.7-61.1 0.8-21.5-7.6-42.2-23.6-58.4-15.9-16-35.5-24.5-56.6-24.6-0.1 0-0.1 0-0.2 0-22.8 0-45.6 10.2-64.1 28.7l-57.1 57.1c-103.8 103.6-211 210.8-316 316.5-10.7 10.8-21.5 13.9-31.6 13.9-4.7 0-9.2-0.7-13.4-1.5-30.3-6.2-60.5-4.8-89.9 4.1-27.6 8.4-53.4 23.4-74.7 43.4s-37.8 44.8-47.8 71.8c-10.1 27.2-13.5 55.6-10.1 84.4 4.2-4.3 8.2-8.5 12.3-12.6 15.5-15.9 30.1-30.9 45.2-45.6 5.9-5.8 10.7-10.7 14.6-14.7 10.6-10.9 16.5-16.9 24.9-19.1s16.5 0.1 31.1 4.3c5.2 1.5 11.6 3.3 19.3 5.4 5.3 1.4 10.6 2.8 15.9 4.2 13.5 3.6 27.4 7.3 41.2 10.6 15.9 3.8 25.5 13.3 29.3 28.8zM745.1 145.2c-0.4 11.4 3.6 22 11 29.8 7.6 7.9 18.3 12.3 30 12.5 0.2 0 0.5 0 0.7 0 22.3 0 40.3-17.3 41-39.6 0.4-10.9-3.8-21.9-11.6-29.9-7.8-8.1-18.7-12.8-29.8-12.8-22.3-0.1-40.5 17.5-41.3 40z" />
<glyph unicode="&#xe905;" glyph-name="settings2" d="M972.4 556.4h-109.2c-3.6 9.5-8.1 20-13.7 31.4-4.1 12-8.2 22.6-12.4 31.8l77.2 77.2c5.3 5.3 8.3 12.5 8.3 20s-3 14.7-8.3 20l-113.3 113.4c-11.1 11.1-29 11.1-40.1 0l-77.3-77.2c-9.1 4.2-19.6 8.2-31.4 12.3-11.6 5.7-22.1 10.3-31.8 13.9v109.2c0 7.5-3 14.7-8.3 20s-12.5 8.3-20 8.3h-160.2c-15.7 0-28.3-12.7-28.3-28.3v-109.3c-9.5-3.6-19.9-8.1-31.4-13.7-12-4.1-22.6-8.2-31.8-12.4l-77.3 77.2c-11.1 11.1-29 11.1-40.1 0l-113.2-113.3c-5.3-5.3-8.3-12.5-8.3-20s3-14.7 8.3-20l77.3-77.2c-4.2-9.3-8.4-19.9-12.5-32-5.6-11.4-10.1-21.7-13.7-31.2h-109.3c-15.7 0-28.3-12.7-28.3-28.3v-160.2c0-7.5 3-14.7 8.3-20s12.5-8.3 20-8.3h109.2c3.6-9.5 8.1-19.9 13.7-31.3 4.1-12.1 8.2-22.6 12.5-31.9l-77.3-77.3c-5.3-5.3-8.3-12.5-8.3-20s3-14.7 8.3-20l113.3-113.4c5.3-5.3 12.5-8.3 20-8.3 0 0 0 0 0 0 7.5 0 14.7 3 20 8.3l77.2 77.3c9.3-4.2 19.8-8.4 31.8-12.5 11.4-5.6 21.9-10.2 31.4-13.7v-109.3c0-7.5 3-14.7 8.3-20s12.5-8.3 20-8.3h160.1c7.5 0 14.7 3 20 8.3s8.3 12.5 8.3 20.1v109.2c9.5 3.5 19.9 8.1 31.2 13.6 12.1 4.1 22.7 8.3 32 12.5l77.3-77.2c11.1-11.1 29-11.1 40.1 0l113.5 113.2c11.1 11.1 11.1 29 0 40.1l-77.2 77.3c4.2 9.3 8.4 19.9 12.5 32 5.6 11.4 10.1 21.7 13.6 31.2h109.3c15.7 0 28.3 12.7 28.3 28.3v160.2c0 15.6-12.6 28.3-28.3 28.3zM944 396.3h-101.7c-13.1 0-24.5-9-27.5-21.7-2.6-11-8.3-25.4-16.9-42.7-0.6-1.2-1.1-2.4-1.5-3.6-6.2-18.5-12.4-32.8-18.3-42.5-6.8-11.2-5.1-25.6 4.1-34.8l71.9-71.9-73.1-73.1-72 71.9c-9.3 9.3-23.7 11-34.8 4.1-9.7-5.9-24-12.1-42.5-18.3-0.8-0.3-1.7-0.6-2.5-1-0.4-0.2-0.8-0.4-1.2-0.5-17.3-8.6-31.7-14.2-42.7-16.9-12.7-3.1-21.7-14.5-21.7-27.6v-101.7h-103.4v101.6c0 13.1-9 24.5-21.7 27.6-11 2.7-25.5 8.4-42.9 17-0.2 0.1-0.3 0.2-0.5 0.3-0.3 0.1-0.6 0.3-0.9 0.4-0.7 0.3-1.4 0.6-2.1 0.8-18.4 6.2-32.6 12.4-42.3 18.3-11.2 6.8-25.6 5.1-34.9-4.1l-71.9-72-73.2 73.1 71.9 71.9c9.3 9.3 11 23.7 4.1 34.8-5.9 9.7-12.1 23.9-18.3 42.4-0.4 1.2-0.9 2.4-1.5 3.6-8.6 17.4-14.3 31.8-17 42.8-3.1 12.7-14.5 21.7-27.6 21.7h-101.7v103.5h101.7c13.1 0 24.5 9 27.5 21.7 2.7 11 8.4 25.4 17 42.7 0 0 0 0 0 0 0.1 0.2 0.2 0.5 0.3 0.7 0.4 0.9 0.8 1.9 1.1 2.8 6.2 18.5 12.4 32.8 18.3 42.5 6.8 11.2 5.1 25.6-4.2 34.8l-71.9 71.9 73.2 73.2 71.9-71.9c9.2-9.2 23.6-11 34.8-4.2 9.7 5.9 23.9 12 42.3 18.2 1.2 0.4 2.4 0.9 3.6 1.5 17.4 8.6 31.8 14.4 42.9 17.1 12.7 3.1 21.7 14.5 21.7 27.5v101.7h103.5v-101.6c0-13.1 9-24.5 21.7-27.6 11.1-2.7 25.7-8.5 43.3-17.2 1.1-0.6 2.3-1.1 3.5-1.5 18.2-6.2 32.4-12.3 42-18.1 11.2-6.8 25.5-5.1 34.8 4.2l71.9 71.9 73.2-73.2-71.9-71.8c-9.3-9.3-11-23.6-4.2-34.8 5.9-9.7 12.1-24 18.3-42.4 0.4-1.3 0.9-2.5 1.5-3.7 8.6-17.4 14.3-31.8 17-42.8 3.1-12.7 14.5-21.7 27.6-21.7h101.7v-103.3zM512 656.5c-115 0-208.5-93.5-208.5-208.5s93.5-208.5 208.5-208.5c115 0 208.5 93.5 208.5 208.5s-93.5 208.5-208.5 208.5zM512 296.2c-83.7 0-151.8 68.1-151.8 151.8s68.1 151.8 151.8 151.8c83.7 0 151.8-68.1 151.8-151.8s-68.1-151.8-151.8-151.8z" />
<glyph unicode="&#xe906;" glyph-name="logout" d="M979 466l-173.5 173.5c-0.4 0.4-0.9 0.9-1.3 1.3l-0.1 0.1c-1.4 1.5-3 3.1-4.9 4.7-12.2 10.3-28.2 9.9-38.8-1.1-10.4-10.8-10.4-26.7-0.1-38.6 1.3-1.5 2.5-2.7 3.7-3.8 0.4-0.4 0.7-0.7 1.1-1.1 44.5-44.5 89-89 133.5-133.5h-628.8c-0.5 0-1 0-1.6 0-1.9 0-4.2 0.1-6.6-0.2-14.9-1.7-25.5-13.6-25.2-28.3 0.3-14.1 10.5-25.3 24.8-27 2.5-0.3 4.8-0.3 6.8-0.2 0.5 0 1 0 1.5 0h106.2c175.4 0 350.9 0 526.4 0-30.3-33-116.1-125.9-137.3-148.9l-1-1.1c-2.3-2.5-5-5.4-7.2-8.9-7-11.2-5.1-25 4.5-34.2 5.3-5.1 12.1-7.9 19.2-7.9 5.3 0 10.5 1.6 15 4.6 3.8 2.5 6.7 5.6 9 8.2l0.3 0.3c6.2 6.7 20.1 21.9 37.8 41.1 49.6 54 124.6 135.7 135.6 146.8 18 18 18.3 36.8 1 54.2zM591.8 146.4v1.7c0 13.6 0 27.2 0 40.7 0 0.5 0 0.9 0 1.4v0.2c0 2.3 0.1 5.2-0.4 8.2-2.2 13.6-13.8 23.5-27.4 23.5-0.3 0-0.6 0-0.9 0-13.6-0.4-24.5-10.2-26.6-23.6-0.5-3.2-0.5-6.1-0.4-8.7 0-0.6 0-1.3 0-1.9 0-12.2 0-24.5 0-36.7 0-26.3 0-56.1-0.1-85.5-91.7 0-185.6 0-268.4 0h-107.3c-5.7 0-11.4 0-17.1 0h-1.1c-14.7 0-29.9 0-45-0.1 0 259.7 0 519.3 0 779 90.8 0 183.1 0 272.8 0h94.2c6.7 0 13.4 0 20.1 0h0.4c16.8 0 34.1 0 51.3 0.1 0-0.4 0-0.7 0-1.1v-136.2c0-0.5 0-1 0-1.5v-0.2c0-2.3-0.1-4.8 0.3-7.6 1.7-14 13.4-24.7 27.2-24.9 0.2 0 0.3 0 0.5 0 13.7 0 25.4 10.3 27.5 24.1 0.4 2.7 0.4 5.3 0.4 7.3 0 0.4 0 0.8 0 1.2v36.4c0 41.3 0 84 0 125.9 0 21.3-11 32.1-32.6 32.1h-91.9c-127.9 0-260.2 0-391.1 0.2h-0.2c-9.1 0-22.4-1.5-32.3-14.7-1.6-2.2-2.5-4.9-2.5-7.6v-846.4c0-2.7 0.9-5.4 2.5-7.5 9.9-13.2 23.2-14.8 32.4-14.8h0.2c180.3 0.3 338 0.3 482 0h0.1c10.5 0 18.9 3 24.9 9 5.9 5.9 8.8 14.2 8.7 24.5-0.3 34.6-0.3 69.6-0.2 103.5z" />
<glyph unicode="&#xe907;" glyph-name="like" d="M987.2 502.9c0 46.8-38.1 84.8-84.8 84.8h-272.4c17.6 50 40.8 132.4 25.9 185.9-25.7 91.4-80.6 98.5-96.8 98.5-40.3 0-71.9-34.1-71.9-77.7 0-31.3-7.1-64.8-21.1-99.4-12.6-31.2-30.9-63.2-53-92.4-38.7-51.3-86.9-91.5-125.5-105.2v25c-0.1 14.6-12 26.5-26.6 26.5h-194.3c-14.6 0-26.5-11.9-26.5-26.5v-466.4c0-14.6 11.9-26.5 26.5-26.5h194.3c14.6 0 26.5 11.9 26.5 26.5v46.6c29.2-4.7 56.9-9.8 86.4-16 51-10.6 87.8-18.3 159.1-18.3h252.6c70.1 0 84.8 35.6 84.8 65.4 0 14-3.4 27.6-9.9 39.8 29.5 13.9 48.8 43.8 48.8 76.8 0 14-3.4 27.6-9.9 39.8 29.5 13.9 48.8 43.8 48.8 76.8 0 14.9-3.8 29.3-11.2 42.1 31.2 19.3 50.2 62.3 50.2 93.9zM836.9 425.1c0-14.6 11.9-26.5 26.5-26.5 17.5 0 31.8-14.3 31.8-31.8s-14.3-31.8-31.8-31.8h-38.9c-14.6 0-26.5-11.9-26.5-26.5s11.9-26.5 26.5-26.5c17.5 0 31.8-14.3 31.8-31.8s-14.3-31.8-31.8-31.8h-38.9c-14.6 0-26.5-11.9-26.5-26.5s11.9-26.5 26.5-26.5c17.5 0 31.8-14.3 31.8-31.8 0-4.7-0.2-6.1-2.1-7.5-2.9-2.2-10.4-4.8-29.7-4.8h-252.5c-65.5 0-100 7.1-147.8 17l-0.6 0.1c-24.7 5.2-55.3 11.5-97.2 18.1v284.2c25.4 6 53.5 20.2 81.7 41.4 29.3 22.1 58 51.2 83.2 84.2 55.8 73.2 87.7 156.3 87.7 228 0 13.1 7.4 23.6 17.5 25 21.4 3 38.7-30.5 47-60.1 5.8-20.7 3.1-54.7-7.9-98.2-8.9-35.3-21.6-70.3-29.8-89.4-3.5-8.2-2.7-17.6 2.2-25 4.9-7.5 13.2-12 22.1-12h310.9c17.5 0 31.8-14.3 31.8-31.8 0-21.5-18.4-51.2-31.8-51.2h-38.9c-14.4 0.1-26.3-11.8-26.3-26.5zM234.5 495.8v-413.4h-141.3v413.4zM154.2 133.9c0 14.6 11.9 26.5 26.5 26.5s26.5-11.9 26.5-26.5c0-14.6-11.9-26.5-26.5-26.5-14.6-0.1-26.5 11.8-26.5 26.5z" />
<glyph unicode="&#xe908;" glyph-name="like-fill" d="M287.5 156.5v284.2zM987.2 502.9c0 46.8-38.1 84.8-84.8 84.8h-272.4c17.6 50 40.8 132.4 25.9 185.9-25.7 91.4-80.6 98.5-96.8 98.5-40.3 0-71.9-34.1-71.9-77.7 0-31.3-7.1-64.8-21.1-99.4-12.6-31.2-30.9-63.2-53-92.4-22.2-29.5-47.6-55.3-72.5-74.5v-434.8c11-2.1 22-4.3 33.4-6.6 51-10.6 87.8-18.3 159.1-18.3h252.6c70.1 0 84.8 35.6 84.8 65.4 0 14-3.4 27.6-9.9 39.8 29.5 13.9 48.8 43.8 48.8 76.8 0 14-3.4 27.6-9.9 39.8 29.5 13.9 48.8 43.8 48.8 76.8 0 14.9-3.8 29.3-11.2 42.1 31.1 19.2 50.1 62.2 50.1 93.8zM261 548.8h-194.3c-14.6 0-26.5-11.9-26.5-26.5v-466.4c0-14.6 11.9-26.5 26.5-26.5h194.3c14.6 0 26.5 11.9 26.5 26.5v467.7c-0.7 14-12.3 25.2-26.5 25.2zM180.7 107.3c-14.6 0-26.5 11.9-26.5 26.5s11.9 26.5 26.5 26.5 26.5-11.9 26.5-26.5c0-14.6-11.9-26.5-26.5-26.5z" />
<glyph unicode="&#xe909;" glyph-name="search" d="M950.7 50.4l-230.2 226.5c62.7 68.4 97.2 156.4 97.2 247.9 0 50-10 98.6-29.6 144.2-19 44.1-46.1 83.8-80.7 117.8s-74.9 60.8-119.7 79.4c-46.4 19.4-95.7 29.2-146.5 29.2s-100.2-9.8-146.6-29.2c-44.8-18.7-85.1-45.4-119.7-79.4s-61.7-73.7-80.7-117.8c-19.6-45.7-29.6-94.2-29.6-144.2s10-98.6 29.6-144.2c19-44.1 46.1-83.8 80.7-117.8s74.9-60.8 119.7-79.4c46.4-19.3 95.7-29.1 146.6-29.1 43.9 0 87 7.4 127.9 22 39.3 14 75.9 34.3 108.6 60.4l231.1-227.4c5.8-5.7 13.4-8.5 21-8.5s15.2 2.8 20.9 8.5c5.6 5.5 8.7 12.8 8.7 20.6 0 7.7-3.1 15-8.7 20.5zM441.2 212.5c-84.8 0-164.5 32.5-224.4 91.5s-92.9 137.4-92.9 220.8c0 83.4 33 161.8 92.9 220.8s139.6 91.5 224.4 91.5 164.5-32.5 224.4-91.5c59.9-59 92.9-137.4 92.9-220.8s-33-161.8-92.9-220.8c-60-59-139.6-91.5-224.4-91.5z" />
<glyph unicode="&#xe90a;" glyph-name="chevron-down" d="M860.4 605.5l-325.4-357c-6.2-6.2-14.5-8.9-22.6-8.5-8.1-0.4-16.4 2.3-22.6 8.5l-325.4 357c-11.7 11.7-11.7 30.7 0 42.5 11.6 11.7 30.5 11.7 42.2 0l305.7-335.5 305.9 335.5c11.6 11.7 30.5 11.7 42.2 0 11.7-11.8 11.7-30.8 0-42.5z" />
<glyph unicode="&#xe90b;" glyph-name="chevron-up" d="M860.4 248.5c-11.6-11.7-30.5-11.7-42.2 0l-305.8 334.7-305.7-334.7c-11.6-11.7-30.5-11.7-42.2 0-11.6 11.7-11.6 30.6 0 42.3l325.3 356.2c6.2 6.2 14.5 8.9 22.6 8.5 8.1 0.4 16.4-2.2 22.6-8.5l325.3-356.2c11.8-11.6 11.8-30.6 0.1-42.3z" />
<glyph unicode="&#xe90c;" glyph-name="chevron-left" d="M711.7 142.9c11.7-11.6 11.7-30.5 0-42.2s-30.6-11.7-42.3 0l-356.3 325.4c-6.2 6.2-8.9 14.5-8.5 22.6-0.4 8.1 2.2 16.4 8.5 22.6l356.2 325.4c11.7 11.7 30.6 11.7 42.3 0 11.7-11.6 11.7-30.5 0-42.2l-334.6-305.8z" />
<glyph unicode="&#xe90d;" glyph-name="chevron-right" d="M712.6 426.1l-357-325.3c-11.7-11.7-30.7-11.7-42.4 0-11.7 11.6-11.7 30.5 0 42.2l335.5 305.8-335.5 305.7c-11.7 11.6-11.7 30.5 0 42.2s30.7 11.7 42.4 0l357-325.4c6.2-6.2 8.9-14.5 8.5-22.6 0.4-8.1-2.2-16.4-8.5-22.6z" />
<glyph unicode="&#xe90e;" glyph-name="subtract-circle" d="M721 448.2c0-16.4-13.3-29.7-29.7-29.7h-356.8c-16.4 0-29.7 13.3-29.7 29.7s13.3 29.7 29.7 29.7h356.8c16.4 0.1 29.7-13.2 29.7-29.7zM988.6 448.2c0-262.8-213-475.8-475.8-475.8s-475.8 213-475.8 475.8c0.1 262.8 213.1 475.8 475.9 475.8 262.7 0 475.7-213 475.7-475.8zM929.2 448.2c0 229.9-186.4 416.3-416.3 416.3s-416.3-186.4-416.3-416.3c0-229.9 186.4-416.2 416.3-416.2s416.3 186.3 416.3 416.2z" />
<glyph unicode="&#xe90f;" glyph-name="add" d="M979.4 451.5c0.1-15.7-12.5-28.4-28.2-28.5l-411.5-2.2v-420.8c0-15.7-12.7-28.3-28.3-28.3s-28.4 12.7-28.4 28.3v420.5l-418.1-2.2c-0.1 0-0.1 0-0.2 0-15.6 0-28.3 12.6-28.3 28.2-0.1 15.7 12.5 28.4 28.2 28.5l418.4 2.2v416.1c0 15.7 12.7 28.3 28.3 28.3s28.3-12.7 28.3-28.3v-415.8l411.2 2.2c0 0 0.1 0 0.2 0 15.6 0 28.3-12.6 28.4-28.2z" />
<glyph unicode="&#xe910;" glyph-name="add-sml" d="M721 448.2c0-16.4-13.3-29.7-29.7-29.7h-148.7v-148.7c0-16.4-13.3-29.7-29.7-29.7s-29.7 13.3-29.7 29.7v148.7h-148.7c-16.4 0-29.7 13.3-29.7 29.7s13.3 29.7 29.7 29.7h148.7v148.8c0 16.4 13.3 29.7 29.7 29.7s29.7-13.3 29.7-29.7v-148.7h148.7c16.4 0 29.7-13.3 29.7-29.8z" />
<glyph unicode="&#xe911;" glyph-name="add-circle" d="M721 448.2c0-16.4-13.3-29.7-29.7-29.7h-148.7v-148.7c0-16.4-13.3-29.7-29.7-29.7s-29.7 13.3-29.7 29.7v148.7h-148.7c-16.4 0-29.7 13.3-29.7 29.7s13.3 29.7 29.7 29.7h148.7v148.8c0 16.4 13.3 29.7 29.7 29.7s29.7-13.3 29.7-29.7v-148.7h148.7c16.4 0 29.7-13.3 29.7-29.8zM988.6 448.2c0-262.8-213-475.8-475.8-475.8s-475.8 213-475.8 475.8c0.1 262.8 213.1 475.8 475.9 475.8 262.7 0 475.7-213 475.7-475.8zM929.2 448.2c0 229.9-186.4 416.3-416.3 416.3s-416.3-186.4-416.3-416.3c0-229.9 186.4-416.2 416.3-416.2s416.3 186.3 416.3 416.2z" />
<glyph unicode="&#xe912;" glyph-name="check" d="M770 590.7l-307.4-307.5c-5.3-5.3-12.5-8.3-20-8.3s-14.7 3-20 8.3l-166.9 166.8c-11.1 11.1-11.1 29 0 40.1s29 11.1 40.1 0l146.7-146.7 287.4 287.4c11.1 11.1 29 11.1 40.1 0s11.1-29.1 0-40.1z" />
<glyph unicode="&#xe913;" glyph-name="check-circle" d="M512.9 924c-262.8 0-475.8-213-475.8-475.8s213-475.8 475.8-475.8 475.8 213 475.8 475.8c-0.1 262.8-213.1 475.8-475.8 475.8zM512.9 32c-229.9 0-416.3 186.3-416.3 416.2s186.4 416.3 416.3 416.3 416.3-186.4 416.3-416.3-186.4-416.2-416.3-416.2zM770 630.8c11.1-11.1 11.1-29 0-40.1l-307.4-307.5c-5.3-5.3-12.5-8.3-20-8.3s-14.7 3-20 8.3l-166.9 166.8c-11.1 11.1-11.1 29 0 40.1s29 11.1 40.1 0l146.7-146.7 287.4 287.4c11.1 11 29 11 40.1 0z" />
<glyph unicode="&#xe914;" glyph-name="check-square" d="M869.7 924h-713.6c-65.7 0-119-53.3-119-118.9v-713.6c0-65.7 53.3-118.9 118.9-118.9h713.6c65.7 0 118.9 53.3 118.9 118.9v713.6c0.1 65.6-53.1 118.9-118.8 118.9zM929.2 91.4c0-32.8-26.6-59.5-59.5-59.5h-713.6c-32.8 0-59.5 26.6-59.5 59.5v713.7c0 32.8 26.6 59.5 59.5 59.5h713.6c32.8 0 59.5-26.6 59.5-59.5zM770 590.7l-307.4-307.5c-5.3-5.3-12.5-8.3-20-8.3s-14.7 3-20 8.3l-166.9 166.8c-11.1 11.1-11.1 29 0 40.1s29 11.1 40.1 0l146.7-146.7 287.4 287.4c11.1 11.1 29 11.1 40.1 0s11.1-29.1 0-40.1z" />
<glyph unicode="&#xe915;" glyph-name="check-circle-fill" d="M512.9 924c-262.8 0-475.8-213-475.8-475.8s213-475.8 475.8-475.8 475.8 213 475.8 475.8c-0.1 262.8-213.1 475.8-475.8 475.8zM770 590.7l-307.4-307.5c-5.3-5.3-12.5-8.3-20-8.3s-14.7 3-20 8.3l-166.9 166.8c-11.1 11.1-11.1 29 0 40.1s29 11.1 40.1 0l146.7-146.7 287.4 287.4c11.1 11.1 29 11.1 40.1 0s11.1-29.1 0-40.1z" />
<glyph unicode="&#xe916;" glyph-name="delete" d="M847.2 110.8c-5.5-5.5-12.8-8.3-20-8.3s-14.5 2.8-20 8.3l-297.4 297.4-294.2-297.3c-5.5-5.6-12.8-8.4-20.2-8.4-7.2 0-14.4 2.7-19.9 8.2-11.1 11-11.2 29-0.2 40.1l294.3 297.4-294.1 294.3c-11.1 11.1-11.1 29 0 40.1s29 11.1 40.1 0l294-294 289.2 292.3c11 11.1 29 11.2 40.1 0.2s11.2-29 0.2-40.1l-289.5-292.5 297.6-297.6c11.1-11.1 11.1-29 0-40.1z" />
<glyph unicode="&#xe917;" glyph-name="delete-sml" d="M682.9 575.9l-127.8-127.8 126-126c11.6-11.6 11.6-30.5 0-42.1s-30.5-11.6-42.1 0l-126 126-126.8-126.8c-11.7-11.7-30.7-11.7-42.4 0s-11.7 30.7 0 42.4l126.8 126.9-126 126c-11.6 11.6-11.6 30.5 0 42 11.6 11.6 30.4 11.6 42 0l126-126 127.8 127.8c11.7 11.7 30.7 11.7 42.4 0 11.8-11.8 11.8-30.7 0.1-42.4z" />
<glyph unicode="&#xe918;" glyph-name="delete-circle" d="M682.9 575.9l-127.8-127.8 126-126c11.6-11.6 11.6-30.5 0-42.1s-30.5-11.6-42.1 0l-126 126-126.8-126.8c-11.7-11.7-30.7-11.7-42.4 0s-11.7 30.7 0 42.4l126.8 126.9-126 126c-11.6 11.6-11.6 30.5 0 42 11.6 11.6 30.4 11.6 42 0l126-126 127.8 127.8c11.7 11.7 30.7 11.7 42.4 0 11.8-11.8 11.8-30.7 0.1-42.4zM988.6 448.2c0-262.8-213-475.8-475.8-475.8s-475.8 213-475.8 475.8c0.1 262.8 213.1 475.8 475.9 475.8 262.7 0 475.7-213 475.7-475.8zM929.2 448.2c0 229.9-186.4 416.3-416.3 416.3s-416.3-186.4-416.3-416.3c0-229.9 186.4-416.2 416.3-416.2s416.3 186.3 416.3 416.2z" />
<glyph unicode="&#xe919;" glyph-name="refresh" d="M73.6 568.4c-14.8 5.2-22.5 21.4-17.3 36.2 15.5 43.9 37.6 85 65.8 122.3 27.8 36.9 60.9 69.2 98.4 96.2 77.9 56 169.9 85.6 266.2 85.6 96.1 0 193.9-29.8 275.5-84 40.5-26.9 76.1-59 105.6-95.3 6.5-8 12.7-16.1 18.5-24.4v127.7c0 15.7 12.7 28.3 28.3 28.3s28.3-12.7 28.3-28.3v-237.8c0-15.7-12.7-28.3-28.3-28.3h-237.7c-15.7 0-28.3 12.7-28.3 28.3s12.7 28.3 28.3 28.3h192c-65.8 134.4-220.2 228.6-382.2 228.6-84.3 0-164.9-25.9-233.1-74.9-32.9-23.6-61.9-52-86.2-84.3-24.6-32.6-44-68.7-57.6-107-5.3-14.7-21.5-22.5-36.2-17.2zM947.2 339.5c-14.8 5.2-31-2.5-36.2-17.3-13.6-38.4-32.9-74.4-57.6-107.1-24.4-32.3-53.4-60.7-86.2-84.3-68.2-49-148.8-75-233.1-75-162 0-316.4 94.2-382.2 228.6h192c15.7 0 28.3 12.7 28.3 28.3s-12.7 28.3-28.3 28.3h-237.7c-15.7 0-28.3-12.7-28.3-28.3v-237.8c0-15.7 12.7-28.3 28.3-28.3s28.3 12.7 28.3 28.3v128.1c5.8-8.3 12-16.4 18.5-24.4 29.6-36.3 65.1-68.4 105.6-95.3 81.6-54.2 179.5-84.1 275.5-84.1 96.2 0 188.3 29.6 266.2 85.6 37.5 27 70.6 59.3 98.4 96.2 28.1 37.3 50.2 78.4 65.8 122.3 5.2 14.8-2.5 31-17.3 36.2z" />
<glyph unicode="&#xe91a;" glyph-name="map-marker" d="M514.9 732.5c-96.1 0-174.3-78.2-174.3-174.3s78.2-174.3 174.3-174.3c96.1 0 174.3 78.2 174.3 174.3s-78.2 174.3-174.3 174.3zM514.9 440.5c-64.9 0-117.6 52.8-117.6 117.6s52.7 117.7 117.6 117.7c64.9 0 117.6-52.8 117.6-117.6s-52.8-117.7-117.6-117.7zM852.5 694.6c-18.5 43.6-44.9 82.8-78.5 116.5-33.6 33.6-72.8 60.1-116.5 78.5-45.2 19.1-93.2 28.8-142.7 28.8s-97.5-9.7-142.7-28.8c-43.6-18.5-82.8-44.9-116.5-78.5-33.6-33.6-60.1-72.8-78.5-116.5-19.1-45.2-28.8-93.2-28.8-142.7 0-83.5 58.7-207.4 174.4-368.3 84.4-117.4 170.1-213.2 171-214.1l21.1-23.5 21.1 23.5c0.9 1 86.5 96.7 171 214.1 115.7 160.9 174.4 284.8 174.4 368.3 0 49.5-9.6 97.5-28.8 142.7zM775.1 398.3c-27.4-53.2-65.7-114.1-113.9-181.2-57.8-80.3-116.1-150.3-146.3-185.6-30.2 35.2-88.6 105.2-146.3 185.6-48.2 67-86.5 128-113.9 181.2-32.9 64-49.6 115.7-49.6 153.7 0 82.7 32.2 160.5 90.7 219s136.3 90.7 219 90.7c82.7 0 160.5-32.2 219-90.7s90.7-136.3 90.7-219c0.2-38-16.5-89.7-49.4-153.7z" />
<glyph unicode="&#xe91b;" glyph-name="map-with-marker" d="M244.4 773.5c0 34.4 27.9 62.2 62.2 62.2 34.4 0 62.2-27.9 62.2-62.2 0-34.4-27.9-62.2-62.2-62.2-34.4 0-62.2 27.9-62.2 62.2zM211.5 604.4c-52.1 72.4-77.4 126.9-77.4 166.5 0 95.1 77.4 172.5 172.5 172.5s172.5-77.4 172.5-172.5c0-39.6-25.3-94.1-77.4-166.5-36.5-50.8-72.5-90.9-74-92.6l-21.1-23.5-21.1 23.5c-1.5 1.6-37.5 41.8-74 92.6zM190.8 770.9c0-36.6 46.5-105.2 66.4-133 17.9-24.9 36-47.5 49.3-63.6 13.4 16.1 31.4 38.7 49.3 63.6 20 27.8 66.4 96.4 66.4 133 0 63.8-51.9 115.8-115.8 115.8s-115.6-52-115.6-115.8zM752.8 915c0 0-195.3-147.8-237.9-178.4s-11.7-68.2 0-59.5c11.7 8.8 237.9 178.4 237.9 178.4l180.4-134.8v-594.7l-180.4 134.8-237.9-178.4-237.9 89.2-180.4-112.5v594.7l18 11c36.4 22.2 6.1 63.3-23.4 44.9-29.4-18.4-50.1-32.6-50.1-32.6v-713.6l235.9 148.7 237.9-89.2 237.9 178.4 235.8-178.4v713.6zM306.6 457.6c-15.7 0-28.3-12.7-28.3-28.3v-127.8c0-15.7 12.7-28.3 28.3-28.3s28.3 12.7 28.3 28.3v127.7c0 15.7-12.6 28.4-28.3 28.4zM573.4 255v241.9c0 15.7-12.7 28.3-28.3 28.3s-28.3-12.7-28.3-28.3v-241.9c0-15.7 12.7-28.3 28.3-28.3s28.3 12.6 28.3 28.3zM811.9 398.4v249c0 15.7-12.7 28.3-28.3 28.3s-28.3-12.7-28.3-28.3v-249c0-15.7 12.7-28.3 28.3-28.3s28.3 12.7 28.3 28.3z" />
<glyph unicode="&#xe91c;" glyph-name="compass" d="M512.9 924c-262.8 0-475.8-213-475.8-475.8s213-475.8 475.8-475.8c262.8 0 475.8 213 475.8 475.8-0.1 262.8-213.1 475.8-475.8 475.8zM512.9 32c-229.9 0-416.3 186.3-416.3 416.2s186.4 416.3 416.3 416.3c229.9 0 416.3-186.4 416.3-416.3s-186.4-416.2-416.3-416.2zM704.4 680l-484.2-251.8c-11.6-6-17.6-19.2-14.5-31.9s14.5-21.6 27.5-21.6h204.1v-204.1c0-13.1 8.9-24.4 21.6-27.5 2.2-0.5 4.5-0.8 6.7-0.8 10.4 0 20.2 5.7 25.1 15.3l251.8 484.3c5.7 11 3.6 24.4-5.1 33.1-8.6 8.7-22 10.7-33 5zM494.1 286.6v116.5c0 15.7-12.7 28.3-28.3 28.3h-116.6l301.8 156.9z" />
<glyph unicode="&#xe91d;" glyph-name="heart" d="M511-29.1c-5.4 0-10.9 1.6-15.6 4.7-4.5 3-110.7 73.7-218.5 187.5-63.7 67.3-114.6 135.6-151.2 203.1-46.6 85.9-70.2 170.8-70.2 252.5 0 85.6 23.3 159.2 67.3 212.8 40.4 49.2 96.1 78.9 156.8 83.5 59.4 4.5 117.6-15.3 164-55.8 28-24.5 50.7-55.6 67.4-92 17.2 37.6 40.7 69.6 70 94.7 47.3 40.6 106.7 60.4 167.1 55.7 59.2-4.5 113.4-32.2 152.8-77.8 43-49.8 65.7-118 65.7-197 0-76.1-23.6-158.8-70.1-245.9-36.5-68.3-87.2-139.6-150.6-211.9-107.4-122.5-213.1-204.8-217.5-208.2-5.1-3.9-11.3-5.9-17.4-5.9zM296.2 859c-4.1 0-8.2-0.2-12.3-0.5-85.5-6.5-171.8-83.2-171.8-239.8 0-72.1 21.3-148 63.3-225.5 34.3-63.2 82.2-127.5 142.5-191.2 78.8-83.2 158-143.2 191.8-167.4 33.5 27.7 114.3 97.3 194.2 188.4 60.4 69 108.4 136.6 142.7 200.9 41.9 78.6 63.2 152.2 63.2 218.8 0 102.3-51.4 209.5-166.1 218.3-45.3 3.5-90-11.5-125.9-42.3-41.3-35.4-68.6-89.4-78.9-156.3-2.1-13.8-14-24-28-24s-25.9 10.2-28 24c-10.1 65.8-36.6 119-76.7 154-31.5 27.7-70.2 42.6-110 42.6z" />
<glyph unicode="&#xe91e;" glyph-name="heart-fill" d="M966.5 642.8c0-76.1-23.6-158.8-70.1-245.9-36.4-68.3-87.1-139.6-150.5-211.9-107.4-122.5-213.1-204.8-217.5-208.2-5.1-3.9-11.2-5.9-17.4-5.9-5.4 0-10.9 1.6-15.6 4.7-4.5 3-110.7 73.7-218.5 187.5-63.7 67.3-114.6 135.6-151.2 203.1-46.6 85.9-70.2 170.8-70.2 252.5 0 85.6 23.3 159.2 67.3 212.8 40.4 49.2 96.1 78.9 156.8 83.5 59.4 4.5 117.6-15.3 164-55.8 28-24.5 50.7-55.6 67.4-92 17.2 37.6 40.7 69.6 70 94.7 47.3 40.6 106.7 60.4 167.1 55.7 59.2-4.5 113.4-32.2 152.8-77.8 42.9-49.9 65.6-118 65.6-197z" />
<glyph unicode="&#xe91f;" glyph-name="cart-empty" d="M973.5 696.1c-5.3 7.4-13.9 11.8-23 11.8h-697.2l-17 75c-2.9 12.9-14.4 22.1-27.6 22.1h-140c-15.7 0-28.3-12.7-28.3-28.3s12.7-28.3 28.3-28.3h117.3l16.2-71.4c0.2-2.5 0.8-4.8 1.6-7.1l73.7-324.9c0.2-1.6 0.6-3.1 1-4.6l18-79.4c-31.9-13.3-54.4-44.9-54.4-81.6 0-48.7 39.6-88.4 88.4-88.4 48.7 0 88.4 39.6 88.4 88.4 0 11.2-2.1 21.8-5.9 31.7h275c-3.8-9.8-5.9-20.5-5.9-31.7 0-48.7 39.6-88.4 88.4-88.4s88.4 39.6 88.4 88.4-39.6 88.4-88.4 88.4h-417.4l-12 53 500.4 2.5c12.1 0.1 22.9 7.9 26.7 19.4l109.3 327.8c2.8 8.7 1.4 18.2-4 25.6zM362.1 179.4c0-17.5-14.2-31.7-31.7-31.7s-31.7 14.2-31.7 31.7 14.2 31.7 31.7 31.7c17.5 0 31.7-14.2 31.7-31.7zM770.5 147.8c-17.5 0-31.7 14.2-31.7 31.7s14.2 31.7 31.7 31.7 31.7-14.2 31.7-31.7-14.2-31.7-31.7-31.7zM820.8 379.9l-492.6-2.5-62.1 273.7h645z" />
<glyph unicode="&#xe920;" glyph-name="credit-card" d="M696.5 416.8c0 15.7 12.7 28.3 28.3 28.3h103.1c15.7 0 28.3-12.7 28.3-28.3s-12.7-28.3-28.3-28.3h-103.1c-15.6-0.1-28.3 12.6-28.3 28.3zM195.1 388.4h297.6c15.7 0 28.3 12.7 28.3 28.3s-12.7 28.3-28.3 28.3h-297.6c-15.7 0-28.3-12.7-28.3-28.3s12.6-28.3 28.3-28.3zM195.1 272.7h104.1c15.7 0 28.3 12.7 28.3 28.3s-12.7 28.3-28.3 28.3h-104.1c-15.7 0-28.3-12.7-28.3-28.3s12.6-28.3 28.3-28.3zM985.3 638.3v-387c0-58.3-47.4-105.7-105.7-105.7h-735.2c-58.3 0-105.7 47.4-105.7 105.7v387c0 58.3 47.4 105.7 105.7 105.7h735.2c58.3 0 105.7-47.4 105.7-105.7zM928.7 504.5h-833.4v-253.2c0-27 22-49 49-49h735.2c27 0 49 22 49 49v253.2zM928.7 638.3c0 27-22 49-49 49h-735.3c-27 0-49-22-49-49v-19.9h833.3v19.9z" />
<glyph unicode="&#xe921;" glyph-name="coupon" d="M858.9 637.3c-0.3 0.1-0.5 0.4-0.5 0.7v67.8c0 18-14.6 32.5-32.5 32.5h-624.9c-18 0-32.5-14.6-32.5-32.5v-67.8c0-0.3-0.2-0.6-0.5-0.7-80-28.3-133.7-104.2-133.7-188.8s53.7-160.5 133.6-188.8c0.3-0.1 0.5-0.4 0.5-0.7v-67.8c0-18 14.6-32.5 32.5-32.5h624.9c18 0 32.5 14.6 32.5 32.5v67.8c0 0.3 0.2 0.6 0.5 0.7 0 0 0 0 0 0 79.9 28.3 133.6 104.2 133.6 188.8 0.1 84.5-53.6 160.4-133.5 188.8zM837.2 321c-26.2-9.3-43.9-34.2-43.9-62v-35.3h-559.8v35.3c0 27.8-17.6 52.7-43.8 62-54 19.1-90.3 70.4-90.3 127.5 0 57.2 36.3 108.4 90.3 127.5 26.2 9.3 43.9 34.2 43.9 62v35.3h559.9v-35.3c0-27.8 17.6-52.7 43.8-62 54.1-19.2 90.4-70.5 90.4-127.6-0.2-57.1-36.5-108.3-90.5-127.4zM608.3 387.7c0-39.5-25.7-73.2-61.3-85.1v-13c0-15.7-12.7-28.3-28.3-28.3s-28.3 12.7-28.3 28.3v13c-30.1 10-53.5 35.7-59.7 68.2-2.9 15.4 7.2 30.2 22.5 33.2 15.4 2.9 30.2-7.2 33.2-22.5 3-15.5 16.6-26.7 32.4-26.7 18.2 0 33 14.8 33 33s-14.8 33-33 33c-49.4 0-89.7 40.2-89.7 89.7 0 39.5 25.7 73.2 61.3 85.1v13c0 15.7 12.7 28.3 28.3 28.3s28.3-12.7 28.3-28.3v-13.1c29.7-10 53-35.1 59.5-67 3.1-15.3-6.8-30.3-22.1-33.5-15.3-3.1-30.3 6.8-33.5 22.1-3.1 15.2-16.6 26.2-32.2 26.3-0.1 0-0.2 0-0.3 0-18.1-0.1-32.8-14.8-32.8-33s14.8-33 33-33c49.4-0.1 89.7-40.3 89.7-89.7z" />
<glyph unicode="&#xe922;" glyph-name="coupon2" d="M985.3 448c0 34.7-16.9 66.1-43.6 85.5 17.2 28.1 20.9 63.6 7.6 95.7s-41 54.6-73 62.3c5.2 32.5-5 66.7-29.6 91.3s-58.7 34.8-91.3 29.6c-7.7 32-30.2 59.7-62.3 73.1-32.1 13.2-67.5 9.6-95.6-7.6-19.4 26.7-50.8 43.6-85.5 43.6s-66.1-16.9-85.5-43.6c-28.1 17.2-63.6 20.9-95.7 7.6s-54.6-41-62.2-73.1c-32.6 5.2-66.7-5-91.3-29.6s-34.8-58.7-29.6-91.3c-32-7.7-59.7-30.2-73-62.3s-9.6-67.5 7.6-95.6c-26.7-19.4-43.6-50.7-43.6-85.5 0-34.7 16.9-66.1 43.6-85.5-17.2-28.1-20.9-63.6-7.6-95.7 13.3-32 41-54.5 73-62.2-5.2-32.6 5-66.7 29.6-91.3 20.4-20.4 47.5-30.9 74.7-30.9 5.5 0 11.1 0.4 16.6 1.3 7.7-32 30.2-59.7 62.3-73 13.1-5.4 26.8-8.1 40.4-8.1 19.5 0 38.7 5.4 55.3 15.6 19.4-26.7 50.7-43.6 85.5-43.6 34.7 0 66.1 16.9 85.5 43.6 28.1-17.2 63.5-20.8 95.7-7.6 32.1 13.3 54.6 41 62.2 73 5.5-0.9 11.1-1.3 16.6-1.3 27.2 0 54.2 10.5 74.7 30.9 24.6 24.6 34.8 58.8 29.6 91.3 32 7.7 59.7 30.2 73 62.2 13.3 32.1 9.7 67.6-7.5 95.7 26.5 19.4 43.4 50.8 43.4 85.5zM888.6 399.9c-11.4-2.1-20.4-11-22.6-22.3-2.3-11.4 2.6-23 12.4-29.3 19.8-12.8 27.6-38 18.5-59.7-9-21.7-32.3-34-55.5-29.1-11.3 2.4-23-2.4-29.4-12-6.4-9.7-6.3-22.2 0.3-31.8 13.4-19.4 11-45.6-5.7-62.2s-42.9-19-62.3-5.7c-9.6 6.6-22.2 6.7-31.8 0.2-9.6-6.4-14.4-18.1-12-29.5 4.9-23.1-7.3-46.4-29-55.4-21.8-9-46.9-1.2-59.8 18.5-6.3 9.7-17.9 14.6-29.3 12.3s-20.2-11.2-22.3-22.6c-4.3-23.2-24.5-40-48.1-40s-43.8 16.8-48.1 40c-2.1 11.4-11 20.4-22.3 22.6-1.8 0.4-3.7 0.5-5.5 0.5-9.5 0-18.5-4.8-23.8-12.9-12.9-19.8-38-27.6-59.7-18.6-21.8 9-34 32.3-29.1 55.3 2.4 11.3-2.4 23-12 29.4s-22.2 6.4-31.8-0.2c-19.4-13.3-45.6-10.9-62.3 5.7-16.6 16.7-19 42.9-5.7 62.3 6.6 9.6 6.6 22.1 0.2 31.8-6.4 9.6-18.1 14.4-29.4 12-23.1-4.9-46.4 7.4-55.4 29.1-9 21.8-1.2 46.9 18.6 59.8 9.7 6.3 14.6 17.9 12.3 29.3s-11.2 20.2-22.6 22.3c-23.2 4.3-40 24.5-40 48.1s16.8 43.8 40 48c11.4 2.1 20.4 10.9 22.6 22.3 2.3 11.4-2.6 23-12.3 29.3-19.8 12.9-27.6 38-18.6 59.7 9 21.8 32.3 34 55.3 29.1 11.3-2.4 23 2.3 29.5 12s6.4 22.2-0.2 31.8c-13.3 19.4-10.9 45.6 5.7 62.3 16.6 16.6 42.8 19 62.3 5.7 9.6-6.5 22.1-6.6 31.8-0.2 9.6 6.4 14.4 18.1 12 29.4-4.9 23.1 7.4 46.4 29 55.4 21.8 9 47 1.2 59.8-18.6 6.3-9.7 17.9-14.6 29.3-12.3s20.2 11.2 22.3 22.6c4.3 23.2 24.5 40 48.1 40 23.5 0 43.8-16.8 48.1-40 2.1-11.4 11-20.4 22.3-22.6 11.4-2.3 23 2.6 29.3 12.3 12.8 19.8 38 27.6 59.7 18.6 21.8-9.1 34.1-32.4 29.2-55.4-2.4-11.3 2.3-23 12-29.5 9.6-6.4 22.2-6.4 31.8 0.2 19.4 13.3 45.6 10.9 62.3-5.7 16.7-16.7 19.1-42.8 5.7-62.3-6.6-9.6-6.7-22.2-0.2-31.8 6.4-9.6 18.1-14.4 29.5-12 23 4.9 46.3-7.3 55.4-29.1 9-21.8 1.2-46.9-18.6-59.8-9.7-6.3-14.6-17.9-12.3-29.3s11.2-20.2 22.6-22.3c23.2-4.3 40-24.5 40-48.1-0.1-23.1-17-43.3-40.2-47.6zM641.3 354.7c0-57.9-40.3-106.5-94.3-119.4v-31.5c0-15.7-12.7-28.3-28.3-28.3s-28.3 12.7-28.3 28.3v31.6c-46.1 11-82.9 48.1-92.1 96.2-2.9 15.4 7.2 30.2 22.5 33.2 15.4 2.9 30.2-7.2 33.2-22.5 5.9-31 33.2-53.5 64.8-53.5 36.4 0 66 29.6 66 66s-29.6 66-66 66c-67.6 0-122.7 55-122.7 122.7 0 57.9 40.3 106.5 94.3 119.4v31.5c0 15.7 12.7 28.3 28.3 28.3s28.3-12.7 28.3-28.3v-31.6c18.1-4.3 35.2-12.7 49.7-24.7 21.6-17.8 36.5-42.7 42.1-70 3.1-15.3-6.8-30.3-22.1-33.5-15.3-3.1-30.3 6.8-33.5 22.1-6.2 30.5-33.3 52.6-64.5 52.6-0.1 0-0.2 0-0.2 0-36.3-0.1-65.8-29.6-65.8-66s29.6-66 66-66c67.5 0 122.6-55 122.6-122.6z" />
<glyph unicode="&#xe923;" glyph-name="paperclip" d="M731 750.6v-544.9c0-1.1-0.1-2.2-0.2-3.2-7.1-56.7-31.1-108-67.6-144.4-39.4-39.3-90.7-60-148.3-60-57.7 0-109 20.8-148.3 60-36.5 36.4-60.5 87.7-67.6 144.4-0.1 1.1-0.2 2.2-0.2 3.2v493c0 49 15.3 94.1 43 126.9 29.8 35.4 72.9 54.8 121.2 54.8 45.5 0 85.1-16.7 114.6-48.4 26.8-28.8 43.6-68.1 48.6-113.5 0.1-0.9 0.2-1.8 0.2-2.8l0.9-484c0-77.7-45.2-129.9-112.4-129.9s-112.4 52.2-112.4 129.8v415.2c0 14.4 11.7 26 26 26s26-11.7 26-26v-415.1c0-18.2 4.3-77.7 60.3-77.7 55.9 0 60.3 59.5 60.3 77.7l-0.9 482.5c-3.9 33.6-15.9 62.1-34.7 82.3-19.7 21.1-45.4 31.8-76.5 31.8-33.2 0-61.4-12.6-81.5-36.4-19.8-23.4-30.7-56.6-30.7-93.3v-491.3c5.9-44.6 24.5-84.5 52.5-112.4 29.4-29.3 68-44.8 111.5-44.8s82.2 15.6 111.6 44.9c28 27.9 46.6 67.8 52.5 112.4v543.2c0 14.4 11.7 26 26 26s26.1-11.6 26.1-26z" />
<glyph unicode="&#xe924;" glyph-name="list" d="M967.4 476.9h-591.9c-15.6 0-28.2-12.7-28.2-28.2s12.7-28.2 28.2-28.2h591.9c15.6 0 28.2 12.7 28.2 28.2s-12.6 28.2-28.2 28.2zM217.7 240.1h-157.8c-15.6 0-28.2-12.7-28.2-28.2v-157.9c0-15.6 12.7-28.2 28.2-28.2h157.8c15.6 0 28.2 12.7 28.2 28.2v157.9c0 15.5-12.6 28.2-28.2 28.2zM189.5 183.6v-101.4h-101.4v101.4zM375.5 736.1h591.9c15.6 0 28.2 12.7 28.2 28.2s-12.7 28.2-28.2 28.2h-591.9c-15.6 0-28.2-12.7-28.2-28.2s12.7-28.2 28.2-28.2zM967.4 161.2h-591.9c-15.6 0-28.2-12.7-28.2-28.2s12.7-28.2 28.2-28.2h591.9c15.6 0 28.2 12.7 28.2 28.2s-12.6 28.2-28.2 28.2zM217.7 555.8h-157.8c-15.6 0-28.2-12.7-28.2-28.2v-157.8c0-15.6 12.7-28.2 28.2-28.2h157.8c15.6 0 28.2 12.7 28.2 28.2v157.7c0 15.6-12.6 28.3-28.2 28.3zM189.5 499.3v-101.4h-101.4v101.4zM217.7 871.4h-157.8c-15.6 0-28.2-12.7-28.2-28.2v-157.8c0-15.6 12.7-28.2 28.2-28.2h157.8c15.6 0 28.2 12.7 28.2 28.2v157.8c0 15.6-12.6 28.2-28.2 28.2zM189.5 815v-101.4h-101.4v101.4z" />
<glyph unicode="&#xe925;" glyph-name="edit" d="M56.3-36.2c-7.8 0-15.4 3.1-21 8.7-7.3 7.3-10.3 17.8-7.9 27.8l61 260.1c1.3 5.4 4 10.3 7.9 14.2l8.8 8.8c0.4 0.5 0.8 0.9 1.3 1.3 0.4 0.4 0.9 0.9 1.3 1.3l529.8 529.9c0.3 0.4 0.7 0.8 1.1 1.1 0.3 0.3 0.7 0.7 1 1l84.3 84.3c20.8 20.8 48.5 32.3 78 32.3s57.2-11.5 78-32.3l85.4-85.4c42.9-42.9 42.9-112.9 0-155.9l-84.2-84.2c-0.5-0.6-1.1-1.2-1.7-1.8s-1.1-1.1-1.7-1.6l-528.8-528.4c-0.4-0.5-0.8-0.9-1.3-1.3-0.4-0.4-0.9-0.9-1.3-1.3l-8.8-8.8c-3.9-3.9-8.9-6.7-14.2-7.9l-260.1-61c-2.4-0.6-4.6-0.9-6.9-0.9zM137.9 211.3l-41.7-177.7 177.8 41.6zM169.6 263.9l157-157 489.7 489.6-156.7 157.4zM701.7 796l156.7-157.5 64.7 64.7c19.7 19.8 19.7 52 0 71.7l-85.4 85.4c-9.6 9.6-22.3 14.8-35.8 14.8-13.6 0-26.3-5.3-35.9-14.8z" />
<glyph unicode="&#xe926;" glyph-name="edit-circle" d="M512.9 924c-262.8 0-475.8-213-475.8-475.8s213-475.8 475.8-475.8c262.8 0 475.8 213 475.8 475.8-0.1 262.8-213.1 475.8-475.8 475.8zM512.9 32c-229.9 0-416.3 186.3-416.3 416.2s186.4 416.3 416.3 416.3c229.9 0 416.3-186.4 416.3-416.3s-186.4-416.2-416.3-416.2zM713.4 695.1c-13.5 13.5-31.5 21-50.6 21s-37.1-7.4-50.7-21l-64.5-64.6c-0.3-0.2-0.5-0.5-0.8-0.7-0.3-0.3-0.6-0.6-0.8-0.9l-231.5-231.5c-0.3-0.3-0.6-0.6-0.9-0.9s-0.6-0.6-0.9-0.9l-26.9-26.9c-3.9-3.9-6.7-8.9-7.9-14.2l-31.9-135.4c-2.4-10 0.6-20.6 7.9-27.8 5.6-5.6 13.2-8.7 21-8.7 2.3 0 4.5 0.3 6.8 0.8l135.3 31.7c5.4 1.3 10.3 4 14.2 7.9l26.9 26.9c0.3 0.3 0.6 0.6 0.9 0.9s0.6 0.6 0.9 0.9l230.9 230.8c0.4 0.4 0.8 0.8 1.3 1.2 0.4 0.4 0.9 0.9 1.3 1.4l64.4 64.4c27.8 27.9 27.8 73.4 0 101.2zM395.2 271.1l-80.3-18.8 18.8 80.3 0.8 0.8 61.4-61.5zM438.1 314l-61.5 61.5 191.1 191.1 61.3-61.6zM715.7 591.5l-44.5-44.5-61.3 61.6 44.4 44.4c3.1 3.1 6.7 3.5 8.6 3.5s5.5-0.5 8.5-3.5l44.4-44.4c4.6-4.7 4.6-12.4-0.1-17.1z" />
<glyph unicode="&#xe927;" glyph-name="share" d="M345.1 698.8c1.5 1.3 2.7 2.5 3.8 3.7 0.4 0.4 0.7 0.7 1.1 1.1 44.5 44.5 89 89 133.5 133.5v-628.6c0-0.5 0-1 0-1.6 0-1.9-0.1-4.2 0.2-6.6 1.7-14.9 13.6-25.5 28.3-25.2 14.1 0.3 25.3 10.5 27 24.8 0.3 2.5 0.3 4.8 0.2 6.8 0 0.5 0 1 0 1.5v106.2c0 175.4 0 350.9 0 526.4 32.9-30.3 125.8-116.2 148.8-137.3l1.1-1c2.5-2.3 5.4-5 8.9-7.2 11.2-7 25-5.1 34.2 4.5 5.1 5.3 7.9 12.1 7.9 19.2 0 5.3-1.6 10.5-4.6 15-2.5 3.8-5.6 6.7-8.2 9l-0.3 0.3c-6.7 6.2-21.9 20.1-41.1 37.8-53.9 49.5-135.5 124.5-146.6 135.5-18.2 18-36.9 18.3-54.3 0.9l-173.5-173.4c-0.4-0.4-0.9-0.9-1.3-1.3l-0.1-0.1c-1.5-1.4-3.1-3-4.7-4.9-10.3-12.2-9.9-28.2 1.1-38.8 10.7-10.5 26.6-10.5 38.6-0.2zM907 558c0 10.5-3 18.9-9 24.9-5.9 5.9-14.2 8.8-24.5 8.7-34.4-0.4-73.4-0.3-107.3-0.3h-1.7c-13.6 0-27.2 0-40.7 0-0.5 0-0.9 0-1.4 0h-0.2c-2.3 0-5.2 0.1-8.2-0.4-13.6-2.2-23.5-13.8-23.5-27.4 0-0.3 0-0.6 0-0.9 0.4-13.6 10.2-24.5 23.6-26.6 3.2-0.5 6.1-0.5 8.7-0.4 0.6 0 1.3 0 1.9 0 12.2 0 24.5 0 36.7 0 26.3 0 60.1 0 89.5-0.1 0-91.7 0-246.6 0-329.4v-107.3c0-5.7 0-11.4 0-17.1v-1.1c0-14.7 0-29.9 0.1-45-259.7 0-419.3 0-679 0 0 90.8 0 183.1 0 272.8v155.2c0 6.7 0 13.4 0 20.1v0.4c0 16.8 0 34.1-0.1 51.3 0.4 0 0.7 0 1.1 0h126.2c0.5 0 1 0 1.5 0h0.2c2.3 0 4.8-0.1 7.6 0.3 14 1.7 24.7 13.4 24.9 27.2 0 0.2 0 0.3 0 0.5 0 13.7-10.3 25.4-24.1 27.5-2.7 0.4-5.3 0.4-7.3 0.4-0.4 0-0.8 0-1.2 0h-36.4c-41.3 0-74 0-115.9 0-21.3 0-32.1-11-32.1-32.6v-91.9c0-127.9 0-321.2-0.2-452.2v-0.2c0-9.1 1.5-22.4 14.7-32.3 2.2-1.6 4.9-2.5 7.6-2.5h746.4c2.7 0 5.4 0.9 7.5 2.5 13.2 9.9 14.8 23.2 14.8 32.4v0.2c-0.3 180.3-0.3 399 0 543v0.3z" />
<glyph unicode="&#xe928;" glyph-name="map-marker-selected" d="M852.5 694.6c-18.5 43.6-44.9 82.8-78.5 116.5-33.6 33.6-72.8 60.1-116.5 78.5-45.2 19.1-93.2 28.8-142.7 28.8s-97.5-9.7-142.7-28.8c-43.6-18.5-82.8-44.9-116.5-78.5-33.6-33.6-60.1-72.8-78.5-116.5-19.1-45.2-28.8-93.2-28.8-142.7 0-83.5 58.7-207.4 174.4-368.3 84.4-117.4 170.1-213.2 171-214.1l21.1-23.5 21.1 23.5c0.9 1 86.5 96.7 171 214.1 115.7 160.9 174.4 284.8 174.4 368.3 0 49.5-9.6 97.5-28.8 142.7zM775.1 398.3c-27.4-53.2-65.7-114.1-113.9-181.2-57.8-80.3-116.1-150.3-146.3-185.6-30.2 35.2-88.6 105.2-146.3 185.6-48.2 67-86.5 128-113.9 181.2-32.9 64-49.6 115.7-49.6 153.7 0 82.7 32.2 160.5 90.7 219s136.3 90.7 219 90.7c82.7 0 160.5-32.2 219-90.7s90.7-136.3 90.7-219c0.2-38-16.5-89.7-49.4-153.7zM689.7 628.3l-209.1-209.1c-5.3-5.3-12.5-8.3-20-8.3s-14.7 3-20 8.3l-102.7 102.7c-11.1 11.1-11.1 29 0 40.1s29 11.1 40.1 0l82.6-82.6 189 189c11.1 11.1 29 11.1 40.1 0 11-11.1 11-29 0-40.1z" />
<glyph unicode="&#xe929;" glyph-name="map-marker-selected-fill" d="M852.5 694.6c-18.5 43.6-44.9 82.8-78.5 116.5-33.6 33.6-72.8 60.1-116.5 78.5-45.2 19.1-93.2 28.8-142.7 28.8s-97.5-9.7-142.7-28.8c-43.6-18.5-82.8-44.9-116.5-78.5-33.6-33.6-60.1-72.8-78.5-116.5-19.1-45.2-28.8-93.2-28.8-142.7 0-83.5 58.7-207.4 174.4-368.3 84.4-117.4 170.1-213.2 171-214.1l21.1-23.5 21.1 23.5c0.9 1 86.5 96.7 171 214.1 115.7 160.9 174.4 284.8 174.4 368.3 0 49.5-9.6 97.5-28.8 142.7zM689.7 628.3l-209.1-209.1c-5.3-5.3-12.5-8.3-20-8.3s-14.7 3-20 8.3l-102.7 102.7c-11.1 11.1-11.1 29 0 40.1s29 11.1 40.1 0l82.6-82.6 189 189c11.1 11.1 29 11.1 40.1 0 11-11.1 11-29 0-40.1z" />
</font>
</defs>
</svg>
