<svg enable-background="new 0 0 1024 1024" viewBox="0 0 1024 1024" xmlns="http://www.w3.org/2000/svg"><path d="m951.3 328.3c-23.9-56.6-58.2-107.5-101.9-151.1-43.7-43.7-94.5-77.9-151.1-101.9-58.6-24.8-120.9-37.4-185.1-37.4-64.2 0-126.5 12.6-185.1 37.4-56.6 23.9-107.5 58.2-151.1 101.8-43.7 43.7-78 94.5-101.9 151.2-24.8 58.6-37.4 120.9-37.4 185.1 0 63.7 12.4 125.6 36.9 183.9 23.6 56.1 57.4 106.7 100.4 150.3l.3.3c43.7 44.1 94.7 78.8 151.6 103.1 59 25.2 121.7 37.9 186.3 37.9 64.7 0 127.5-12.8 186.6-38 57-24.4 108.1-59.2 151.8-103.5l.1-.1c43-43.6 76.7-94.1 100.3-150.3 24.4-58.2 36.8-120 36.8-183.6-.1-64.2-12.7-126.5-37.5-185.1zm-564.5 447.6c19.6-7.1 39.8-14.4 59.2-21.7 11.3-4.3 18.9-15.3 18.9-27.4v-97c0-12.8-7.9-23.9-19.7-27.7-3.6-1.5-38.5-18.1-38.5-88.7 0-13.8-9.7-25.5-22.6-28.5-.7-2.2-1.4-5.7-1.4-10.3 0-4.6.7-8.1 1.4-10.3 12.9-3.1 22.6-14.7 22.6-28.5 0-6.2-1.5-11.7-4.9-23.8-3.8-13.5-9.5-33.9-11.6-52.7-2.7-24.5 2.5-30.5 2.6-30.5.6-.6 5.5-2.4 17.7 0 15.4 3.1 30.4-6.4 34.2-21.6 4.4-17.7 42.2-36 97.7-36 55.5 0 93.2 18.3 97.7 36 8.2 32.9-7 80.4-14.3 103.2-4 12.4-6 18.6-6 25.5 0 13.8 9.7 25.5 22.6 28.5.7 2.2 1.4 5.7 1.4 10.3 0 4.6-.7 8.1-1.4 10.3-12.9 3.1-22.6 14.7-22.6 28.5 0 70.6-34.9 87.2-38.5 88.7-11.8 3.8-19.7 14.9-19.7 27.7v97c0 12.1 7.6 23.2 19 27.4 21.1 7.9 42.2 15.6 62.6 22.9l.3.1c52.2 18.9 101.9 36.8 138.4 54.9-31.6 26.7-66.9 48.5-105 64.8-51.9 22-106.9 33.2-163.7 33.2-56.7 0-111.6-11.2-163.3-33.2-38.1-16.2-73.3-37.9-104.8-64.4 38.6-19.3 90.9-38.3 141.7-56.7zm233.3-128.9c9.8-6.8 22.2-17.8 33-34.7 13.8-21.7 22-48.2 24.5-79.1 15.6-11.7 24.8-33.1 24.8-58.7 0-22-6.7-40.9-18.7-53.3 9.8-31.1 24.6-82.8 13.2-128.4-6.9-27.4-28.3-49.4-61.9-63.6-25.8-10.9-58.7-16.8-92.6-16.8-33.9 0-66.8 6-92.6 16.8-23.2 9.8-40.4 23-51.3 39.5-20.2.2-36.5 6.9-48.7 20-31.4 33.9-16.6 95-6.4 131.8-12.3 12.3-19.3 31.5-19.3 53.9 0 25.5 9.2 47 24.8 58.7 5.2 66.4 36.1 99 57.4 113.7v59.5c-13 4.8-26.4 9.7-39.3 14.4h-.1c-60 21.8-122 44.2-165.8 68.8-67.6-76.2-104.7-174-104.7-276.2 0-56.3 11-110.9 32.7-162.3 21-49.6 51.1-94.2 89.3-132.5 38.3-38.3 82.9-68.4 132.5-89.3 51.4-21.7 106-32.7 162.3-32.7 56.3 0 110.9 11 162.3 32.7 49.6 21 94.2 51.1 132.5 89.3 38.3 38.3 68.3 82.9 89.3 132.5 21.7 51.4 32.7 106 32.7 162.3 0 102-37 199.6-104.2 275.7-41-23-97.6-43.5-162.5-67-14.1-5.1-28.6-10.4-43.2-15.7v-59.3z" fill="#231f20"/></svg>