<svg enable-background="new 0 0 1024 1024" viewBox="0 0 1024 1024" xmlns="http://www.w3.org/2000/svg"><path d="m713.4 219.3c9.4 11.5 25.9-9.4 25.9-9.4l5.8-3.6c2.2-2.2 0-3.6-2.2-3.6-2.2 0-5.8 0-9.4-2.2-9.4-2.2-28.1 5.8-22.3 16.6.1 2.2 2.2 2.2 2.2 2.2z"/><path d="m942.4 144.5c-37.4 9.4-112.3 41-182.2 11.5-101.5-39.6-140.4 73.5-148.3 105.1-7.2 30.2-78.5 253.5-468.8-131.1-11.5-11.5-28.1-3.6-25.9 11.5 5 132.5 125.3 260 125.3 260s279.4 311.1-123.9 382.4c-82.8 18.7-37.4 41-18.7 49 7.2 2.2 13 7.2 18.7 13 7.2 7.2 11.5 18.7 0 31.7-22.3 22.3-52.6 58.3 33.8 46.8 86.4-13 639.5-80.7 660.4-474.6 10.8-224.7 95.8-252.8 136.8-292.4 5.8-5.7 0-15.1-7.2-12.9zm-201.6 46.8c9.4 0 15.1 2.2 20.9 2.2 2.2 1.4 4.3 5 2.2 7.2l-12.2 15.8c0 0-31.7 37.4-50.4 16.6-1.4-2.2-1.4-3.6-3.6-5.8-11.6-26.7 26.5-39.6 43.1-36zm-543.7 705.7c-2.2 0-3.6-2.2-5.8-2.2-5.8-15.1-13-61.9 74.9-103 247.7-93.6 319-279.4 343.5-350.7 30.2-82.8 67.7-144.7 123.9-93.6 154.1 140.5-33.8 473.9-536.5 549.5zm189.4-732.4c-9.4-97.2 36-78.5 58.3-31.7v2.2c25.9 44.6 52.6 85.7 108.7 131.1 7.9 7.2 11.5 18.7 5.8 28.1-24.5 46.8-99.4 22.3-120.3 15.1-3.6-1.4-7.2-3.6-7.2-9.4-9.3-13.7-39.5-56.9-45.3-135.4z"/></svg>