<?xml version="1.0" encoding="utf-8"?>
<!-- Generator: Adobe Illustrator 21.0.0, SVG Export Plug-In . SVG Version: 6.00 Build 0)  -->
<svg version="1.1" xmlns="http://www.w3.org/2000/svg" xmlns:xlink="http://www.w3.org/1999/xlink" x="0px" y="0px"
	 viewBox="0 0 1024 1024" style="enable-background:new 0 0 1024 1024;" xml:space="preserve">
<style type="text/css">
	.st0{display:none;}
	.st1{display:inline;fill:#231F20;stroke:#231F20;stroke-width:1.4173;stroke-miterlimit:10;}
	.st2{display:inline;fill:#231F20;stroke:#231F20;stroke-width:21.2598;stroke-miterlimit:10;}
	.st3{display:inline;}
	.st4{fill:#231F20;stroke:#231F20;stroke-width:19.8425;stroke-miterlimit:10;}
	.st5{stroke:#000000;stroke-width:14.1732;stroke-miterlimit:10;}
	.st6{display:inline;stroke:#000000;stroke-width:14.1732;stroke-miterlimit:10;}
	.st7{display:inline;fill-rule:evenodd;clip-rule:evenodd;}
	.st8{fill:#231F20;}
	
		.st9{display:inline;fill:none;stroke:#231F20;stroke-width:56.6929;stroke-linecap:round;stroke-linejoin:round;stroke-miterlimit:10;}
	.st10{fill:none;stroke:#000000;stroke-width:56.6929;stroke-linecap:round;stroke-linejoin:round;stroke-miterlimit:10;}
	
		.st11{display:inline;fill:none;stroke:#000000;stroke-width:56.6929;stroke-linecap:round;stroke-linejoin:round;stroke-miterlimit:10;}
	.st12{fill:none;stroke:#231F20;stroke-width:52.0974;stroke-linecap:round;stroke-linejoin:round;stroke-miterlimit:10;}
	.st13{display:inline;fill-rule:evenodd;clip-rule:evenodd;fill:none;stroke:#000000;stroke-width:56.6929;stroke-miterlimit:10;}
	.st14{display:inline;opacity:0.42;fill:none;stroke:#FF29FF;stroke-width:56.6929;stroke-miterlimit:10;}
</style>
<g id="Pengo">
	<path d="M713.4,219.3c9.4,11.5,25.9-9.4,25.9-9.4l5.8-3.6c2.2-2.2,0-3.6-2.2-3.6c-2.2,0-5.8,0-9.4-2.2c-9.4-2.2-28.1,5.8-22.3,16.6
		C711.3,219.3,713.4,219.3,713.4,219.3z"/>
	<path d="M942.4,144.5c-37.4,9.4-112.3,41-182.2,11.5c-101.5-39.6-140.4,73.5-148.3,105.1c-7.2,30.2-78.5,253.5-468.8-131.1
		c-11.5-11.5-28.1-3.6-25.9,11.5c5,132.5,125.3,260,125.3,260s279.4,311.1-123.9,382.4c-82.8,18.7-37.4,41-18.7,49
		c7.2,2.2,13,7.2,18.7,13c7.2,7.2,11.5,18.7,0,31.7c-22.3,22.3-52.6,58.3,33.8,46.8c86.4-13,639.5-80.7,660.4-474.6
		c10.8-224.7,95.8-252.8,136.8-292.4C955.4,151.7,949.6,142.3,942.4,144.5z M740.8,191.3c9.4,0,15.1,2.2,20.9,2.2
		c2.2,1.4,4.3,5,2.2,7.2l-12.2,15.8c0,0-31.7,37.4-50.4,16.6c-1.4-2.2-1.4-3.6-3.6-5.8C686.1,200.6,724.2,187.7,740.8,191.3z
		 M197.1,897c-2.2,0-3.6-2.2-5.8-2.2c-5.8-15.1-13-61.9,74.9-103c247.7-93.6,319-279.4,343.5-350.7c30.2-82.8,67.7-144.7,123.9-93.6
		C887.7,488,699.8,821.4,197.1,897z M386.5,164.6c-9.4-97.2,36-78.5,58.3-31.7v2.2c25.9,44.6,52.6,85.7,108.7,131.1
		c7.9,7.2,11.5,18.7,5.8,28.1c-24.5,46.8-99.4,22.3-120.3,15.1c-3.6-1.4-7.2-3.6-7.2-9.4C422.5,286.3,392.3,243.1,386.5,164.6z"/>
</g>
<g id="Schedule" class="st0">
	<path class="st1" d="M914.9,427.7c-56.8-58.2-134-90.9-217.5-92.2l-4.7,0c-163.1,0-298.1,134.7-300.8,300.2
		c-2.7,164.5,132.9,305.9,296.2,308.7l5.5,0.1c166.9,0,304.7-133.7,307.3-298C1002.2,563.6,971.7,485.9,914.9,427.7z M697.3,371.9
		v5.4c144.2,0,261.6,116.6,261.9,259.8c0.1,71.9-27.2,139-76.8,188.7c-49.3,49.4-115.7,76.6-188.3,76.6c0,0,0,0,0,0
		c-143.3-0.7-260-117.9-260.4-261.3c-0.3-147.4,115-263.3,262.6-263.9L697.3,371.9C697.3,371.9,697.3,371.9,697.3,371.9z
		 M698.7,428.4L698.7,428.4c6.6,0,21,2.5,21.1,25.2v165.6l164.1,0l1.7,5.4v-5.4c3.1,0,6.3,0,9.4,0.4c10.7,1.2,17.5,8.2,18.3,18.9
		c0.8,11.1-5.4,19.2-16.5,21.6c-3.5,0.8-6.9,0.8-10.3,0.8l-185.2,0.3h0c-14.5,0-23.2-8.7-23.2-23.2c0-61.6,0-123.2,0-184.8
		C678.1,437.8,685.8,428.6,698.7,428.4z M388.8,810.3L88,810.3c-18.1,0-23.4-5.3-23.4-23.8V289.1h786.7l0,24.9c0,0.3,0,0.6,0,0.8
		c0,0.2,0,0.5,0,0.8l0,18.3c0,15,8.1,24.8,20.8,24.9c12.2,0,20.6-9.9,20.9-24.6l0-4.4l0-1.4V154.5c-0.1-39.4-24.4-63.8-63.5-63.8
		L85,90.6c-37.1,0-62,25.1-62,62.4v634.9c0,39.5,24.6,64.1,64.1,64.1l272.1,0.1c8.9,0,17,0,30.6-0.1c13.2-0.1,23-8.6,23.3-20.2
		C413.5,819.6,403.9,810.7,388.8,810.3z M851.4,222.2l0,24.1H64.8l0-25.1c-0.1-24.3-0.1-48.3,0.2-72.2c0.1-10.1,7.4-16.3,19-16.4
		c32-0.1,748.3-0.1,750,0c10.2,0.5,17.1,7.2,17.2,16.5C851.5,173.3,851.4,197.6,851.4,222.2z M733.8,183.2l0-2.2l-0.2-1.2
		c-0.8-11.7-8.3-19.7-19.1-20.5l-1.5-0.1c-11.1,0-19.9,8.4-20.5,19.5c-0.3,6.1-0.4,7-0.5,7.3l-0.1,1.1l0.1,0.8
		c0,0.4,0.2,1.8,0.4,7.5c0.4,11.1,9.3,19.5,20.6,19.5l1.2,0c11.1-0.6,18.7-8.5,19.3-20.3c0.2-3.2,0.2-4.4,0.2-5.2l0.1-4.6
		C733.8,184.4,733.8,183.8,733.8,183.2C733.8,183.2,733.8,183.2,733.8,183.2z M713,209.6C713,209.6,713,209.6,713,209.6L713,209.6
		L713,209.6z M253.3,561.2c-0.3,11.7-9.5,20.3-22,20.4c-12.1,0.2-55.7,0.2-65.5,0.1c-6.5-0.1-12.2-2.4-16.2-6.6
		c-3.8-4-5.7-9.4-5.5-15.3c0.4-11.7,9.2-19.5,22.3-19.7c4.3-0.1,60.4-0.1,64.6,0c6.8,0.1,12.8,2.5,16.9,6.7
		C251.5,550.7,253.4,555.6,253.3,561.2z M253.3,414.1c0,12-9.1,20.2-22.8,20.5c-4.3,0.1-60.2,0.1-64.7,0c-13-0.3-21.6-8.2-21.8-20.2
		c-0.3-12.3,8.2-20.8,21.1-21.1c22.2-0.5,44.4-0.5,66.6-0.1C244.3,393.4,253.3,402.2,253.3,414.1z M231.6,686.7
		c12.6,0.2,21.7,9,21.7,20.8c0,11.9-9.3,20.4-22.6,20.6c-4.5,0.1-9,0.1-13.5,0.1l-19.2,0l-19.1,0.1c-4.2,0-8.5,0-12.7-0.1
		c-13-0.3-21.7-8.2-22-20c-0.2-5.8,1.8-11.1,5.5-15c4-4.2,9.9-6.5,16.5-6.6C187.9,686.3,209.8,686.3,231.6,686.7z M334.2,581.9
		l-14-0.2c-6.5-0.1-12.2-2.4-16.2-6.6c-3.8-4-5.7-9.4-5.5-15.3c0.4-11.7,9.2-19.5,22.3-19.7l2.6,0c0,0,21.5,0,25.8,0
		c13.1,0.2,21.9,8,22.3,19.7c0.2,5.9-1.7,11.3-5.5,15.3c-4,4.2-9.7,6.5-16.2,6.6l-14,0.2H334.2z M320.3,434.7
		c-13-0.3-21.6-8.2-21.8-20.2c-0.3-12.3,8.2-20.8,21.1-21.1c22.2-0.5,44.4-0.5,66.6-0.1c12.5,0.2,21.5,9,21.5,21
		c0,12-9.1,20.2-22.8,20.5C380.7,434.7,324.8,434.8,320.3,434.7z M349.4,686.6c6.7,0.1,12.5,2.4,16.5,6.6c3.7,3.9,5.7,9.2,5.5,14.9
		c-0.3,11.7-9.2,19.7-22,20h-29c-12.9-0.3-21.7-8.4-22-20c-0.2-5.8,1.8-11.1,5.5-14.9c4-4.2,9.9-6.5,16.5-6.6H349.4z M224,187.1
		c0-0.9,0.1-2.1,0-3.9V179h-0.3c-1-11.4-9.6-19.7-21.4-19.7c0,0,0,0,0,0c-11.4,0.5-19.5,9.2-19.8,21.3c0,0.3,0,0.5,0,0.8l-0.2,0
		l0,11.1h0.2c0,0.2,0,0.4,0,0.6c0.2,12.8,8.3,21.6,20.1,21.9l0.5,0c11.4,0,20-8.6,20.8-20.9c0.3-4.7,0.3-4.9,0.2-5.8L224,187.1z
		 M203.1,209.6L203.1,209.6L203.1,209.6L203.1,209.6z"/>
</g>
<g id="Profile" class="st0">
	<path id="XMLID_4_" class="st2" d="M941.5,332.4c-23.4-55.4-56.9-105.1-99.6-147.8C799.2,142,749.5,108.4,694.2,85
		c-57.3-24.2-118.2-36.5-181-36.5c-62.8,0-123.6,12.3-181,36.5c-55.4,23.4-105.1,56.9-147.8,99.6c-42.7,42.7-76.2,92.4-99.6,147.8
		c-24.2,57.3-36.5,118.2-36.5,181c0,62.3,12.1,122.8,36.1,179.8c23.1,55,56.2,104.5,98.3,147.1c0,0,0,0,0,0
		c42.8,43.2,92.7,77.2,148.3,100.9c57.7,24.6,118.9,37.1,182.1,37.1c63.3,0,124.6-12.5,182.4-37.2c55.7-23.8,105.7-57.9,148.5-101.2
		c0,0,0,0,0,0c42-42.6,75-92,98-147c23.9-56.9,35.9-117.3,35.9-179.5C978.1,450.6,965.8,389.7,941.5,332.4z M680.9,906.7
		c-53.1,22.7-109.5,34.2-167.7,34.2c-58.1,0-114.5-11.5-167.5-34.1c-43.9-18.7-84-44.4-119.3-76.4c40-22.1,99.2-43.6,156.8-64.4
		c19.6-7.1,39.8-14.4,59-21.7c7.3-2.7,12.1-9.7,12.1-17.5v-97c0-8.2-4.8-15.3-12.7-17.7c-3.4-1.3-45.5-19.3-45.5-98.7
		c0-10.3-8.3-18.6-18.6-18.7c-1.7-1.3-5.5-8.5-5.5-20.1c0-11.6,3.7-18.8,5.5-20.1c10.3-0.1,18.5-8.4,18.5-18.7
		c0-4.7-1.4-9.8-4.5-20.9c-3.9-13.8-9.8-34.8-11.9-54.4c-2.8-25.8,2.1-35.5,5.3-38.9c5.6-6.1,18.1-5.1,27.6-3.2
		c9.8,2,19.4-4.1,21.8-13.8c6.4-25.5,51.8-44,108-44c56.2,0,101.6,18.5,108,44c8.9,35.8-6.9,85.3-14.5,109
		c-3.7,11.7-5.5,17-5.5,22.2c0,10.3,8.3,18.6,18.6,18.7c1.7,1.3,5.5,8.5,5.5,20.1c0,11.6-3.7,18.8-5.5,20.1
		c-10.3,0.1-18.5,8.4-18.5,18.7c0,79.4-42.2,97.4-45.5,98.7c-7.8,2.4-12.7,9.5-12.7,17.7v97c0,7.8,4.8,14.8,12.1,17.5
		c21.2,7.9,42.3,15.6,62.8,23c59.2,21.4,115.6,41.8,153.5,62.7C765.1,862.1,725,887.9,680.9,906.7z M827.9,802.6
		c-40.5-24.3-100.2-45.9-168.2-70.5c-16.4-5.9-33.3-12-50.2-18.3v-72.6c19.3-11.8,53.8-42.6,57.8-113.9c15-8.5,24.4-27.9,24.4-52.7
		c0-22.4-7.7-40.4-20.3-49.9c9.4-29.2,26.6-83.2,15.1-129.2c-6-24-25.3-43.5-55.7-56.3c-24.5-10.3-56-16-88.5-16
		c-32.5,0-64,5.7-88.5,16c-23.5,9.9-40.3,23.7-49.5,40.5c-19.9-1.1-35.6,4.4-46.8,16.5c-29.1,31.4-11.7,94.1-2.1,128.2
		c-12.8,9.5-20.7,27.6-20.7,50.3c0,24.8,9.5,44.2,24.4,52.7c4,71.3,38.5,102.2,57.8,113.9v72.6c-15.3,5.7-31.1,11.4-46.5,17
		c-63.2,22.9-128.4,46.5-171.6,72.3C125.8,723.9,85.7,621.6,85.7,513.4c0-57.7,11.3-113.7,33.6-166.4
		c21.5-50.9,52.4-96.6,91.6-135.9c39.3-39.3,85-70.1,135.9-91.6c52.7-22.3,108.7-33.6,166.4-33.6s113.7,11.3,166.4,33.6
		c50.9,21.5,96.6,52.4,135.9,91.6c39.3,39.3,70.1,85,91.6,135.9c22.3,52.7,33.6,108.7,33.6,166.4
		C940.7,621.4,900.8,723.5,827.9,802.6z"/>
</g>
<g id="Settings" class="st0">
	<g id="Settings_1_" class="st3">
		<g id="XMLID_25_">
			<g id="XMLID_7_">
				<path id="XMLID_29_" class="st4" d="M972.7,161.6c14.2,14.3,14.3,22.7,0.3,36.9c-19.2,19.5-38.4,38.8-57.9,57.9
					c-23.3,22.9-50.2,29.6-81.6,18.2c-4.7-1.7-13.1-0.8-16.4,2.5c-64.6,63.6-128.6,127.6-194.9,193.6c31.9,31.4,62.9,61.8,93.6,92.4
					c56.4,56.2,113.1,112.1,168.7,169c45.5,46.7,48.9,118.5,9.6,168.8c-39.1,50.2-109,65-164.4,33.7c-12.9-7.4-24.6-17.6-35.2-28
					c-61.1-60.4-121.7-121.4-182.5-182.3c-3.7-3.7-7.6-7.2-12.5-11.8c-4.8,4.5-9.4,8.7-13.8,13c-54.7,54.6-109.1,109.5-164,163.8
					c-31.5,31.1-68.7,50.5-114.3,43.8c-52.4-7.7-83.1-52.9-73.6-105.3c5.9-32.5,21.2-59.8,44.6-83
					c54.4-54.1,108.4-108.5,162.9-162.5c4.4-4.4,10.8-6.9,16.2-10.3c-0.2-2.6-0.4-5.2-0.6-7.8c-9-7.4-17.6-15.4-27.2-21.6
					c-5.1-3.3-12.4-5.6-18.2-4.8c-102.8,14.6-204-38.2-247.7-130.9c-26.7-56.6-30-115-11.6-174.7c7.7-25,21.5-28.4,40.1-10
					c32.2,31.8,64.4,63.8,95.9,96.3c7.5,7.6,14.4,9.7,24.6,6.5c21-6.7,48.1-6.4,61.8-20c13.7-13.5,13.5-40.7,20.5-61.5
					c4-11.7,0.6-19.1-7.9-27.2c-31.3-30.3-61.9-61.4-92.5-92.3c-21.6-21.7-18.1-34.5,11.7-43.4c166.3-50,323.1,84.8,302.1,259.1
					c-0.8,7.2,2.3,17,7.2,22.3c25.7,27.6,52.5,54,81.2,83.2c53.2-53.5,103.9-104.6,154.6-155.7c5.8-5.8,11.3-11.7,17.3-17.2
					c16.5-15.3,31.7-28.2,20.7-56.7c-8.4-21.5,2.5-44.4,19.6-61.8c20-20.2,40-40.5,60.2-60.5c12.8-12.7,22.9-12.4,35.7,0.5
					C927.5,116.4,950.1,139,972.7,161.6z M935.6,180.2c-16.5-16.3-33-32.5-50-49.3c-16.9,16.7-35.2,33.6-52.1,51.8
					c-12.5,13.5-11,34.4,1,47.7s33.3,17,47.3,4.7C901.1,218.1,918,198.4,935.6,180.2z M857.2,885.9c37.2-37.6,35.1-93.3-5.1-133.5
					c-124.4-124.5-248.7-249-373.5-373.2c-10.3-10.2-13.4-20-10.4-34.1c20.6-96.9-34-193.3-127.7-226.1
					c-32.8-11.4-66.2-14.2-104.2-7c7,7.5,11.5,12.6,16.2,17.3c25,25.1,49.9,50.4,75.4,75c9.1,8.7,11.7,17.8,8.4,29.7
					c-8.1,29.1-16.1,58.1-23.4,87.4c-3,12.3-10.1,18.7-22.1,21.6c-19.2,4.5-38.2,9.8-57.2,14.8c-55.1,14.4-39.3,18.5-80.5-21.6
					c-22.8-22.2-44.6-45.2-69.7-70.7c-2.4,8.1-3.4,10.8-3.9,13.5c-18.9,132.7,102,246.5,233.6,219.6c14.3-2.9,24.9-1.5,36,9.6
					c124,124.8,248.5,249.2,373,373.7C763,922.5,819.4,924,857.2,885.9z M402.1,756.1c23-22.8,46.7-44.9,68.7-66.1
					c-31.9-32.2-61.3-61.8-91.1-91.9c-1.1,0.8-3.2,1.8-4.8,3.3c-58.4,58.3-117.5,115.9-174.3,175.5c-13.4,14-23.1,33.9-28.4,52.8
					c-12,43.1,21,76.9,63.9,65c20.9-5.8,42-17.7,58.2-32.2C331.8,828.7,366.2,791.5,402.1,756.1z"/>
				<path id="XMLID_19_" class="st4" d="M818,812.5c0.7,17.5-14,32.5-31.4,32.5c-17.2,0-31-13.3-31.5-30.5
					c-0.6-18.2,12.7-31.8,31.3-32C803.6,782.1,817.5,795.4,818,812.5z"/>
			</g>
		</g>
	</g>
</g>
<g id="Logout" class="st0">
	<g id="XMLID_8_" class="st3">
		<path id="XMLID_26_" class="st5" d="M973.9,499c-14.5-14.5-173.4-173.5-173.4-173.5c-0.5-0.5-1-1-1.4-1.5
			c-1.4-1.4-2.8-2.9-4.4-4.2c-9.4-7.9-21.1-7.7-29.2,0.6c-7.9,8.2-7.8,19.8,0.2,29.1c1.1,1.2,2.1,2.3,3.2,3.3
			c0.4,0.4,0.8,0.8,1.2,1.1c48.5,48.5,97,97,145.6,145.6H269.8c-0.6,0-1.1,0-1.7,0c-1.8,0-3.7-0.1-5.7,0.2
			c-11.4,1.3-19.1,10-18.9,21.1c0.2,10.5,7.9,18.8,18.6,20.2c2,0.2,4,0.2,5.8,0.2c0.5,0,1.1,0,1.6,0h106.2c180.8,0,361.7,0,542.6,0
			c-0.1,0.1-0.2,0.2-0.3,0.3c0,0-122.2,132.3-148.1,160.4l-1,1.1c-2.2,2.4-4.5,4.8-6.4,7.8c-5.1,8.3-3.8,18.5,3.4,25.4
			c4.1,3.9,9.2,5.9,14.3,5.9c3.8,0,7.7-1.1,11.1-3.4c3.1-2,5.5-4.7,7.7-7.1l0.3-0.3c23.3-25.2,158.4-172.8,173.5-188
			C988.1,528.1,988.5,513.6,973.9,499z"/>
		<polygon id="XMLID_32_" class="st5" points="585,917 585,917 585,917 		"/>
		<path id="XMLID_33_" class="st5" d="M584.7,813.3c0-14,0-28.1,0-42.1c0-0.6,0-1.1,0-1.7c0-2.1,0.1-4.5-0.3-6.9
			c-1.7-10.3-10.2-17.6-20.4-17.6c-0.2,0-0.5,0-0.7,0c-10.1,0.3-18.3,7.6-19.8,17.7c-0.4,2.6-0.4,5.1-0.3,7.5c0,0.7,0,1.4,0,2
			c0,12.2,0,24.5,0,36.7c0,28.5,0,57.9-0.1,86.9c0,1.5,0,2.8,0,3.9c0,0.6,0,1.2,0,1.8c-0.6,0-1.3,0-1.9,0c-1.2,0-2.6,0-4.1,0
			c-89.8,0-181.2,0-269.5,0l-107.3,0c-5.7,0-11.4,0-17.1,0c-16.9,0-34.3,0-51.5,0.1c-0.8,0-1.4,0-1.8-0.1c0-0.1,0-0.3,0.1-0.5
			c0.2-1.4,0.2-2.7,0.1-3.7c0-0.3,0-0.7,0-1c0-260.5,0-521,0-781.5c0-1.7,0-3.1,0-4.4c0-0.7,0-1.5,0-2.1c0.7,0,1.6,0,2.4,0
			c1.3,0,2.9,0.1,4.7,0.1c97.8,0,197.2,0,293.3,0l73.8,0c6.7,0,13.4,0,20.1,0c18.7,0,38.1,0,57.2-0.1c0.8,0,1.3,0,1.7,0.1
			c0,0.2,0,0.4-0.1,0.7c-0.2,1.9-0.2,3.8-0.1,5.5c0,0.7,0,1.3,0,2v136.2c0,0.6,0,1.2,0,1.8c0,2.1-0.1,4.3,0.2,6.6
			c1.3,10.5,10,18.5,20.3,18.7c10.3,0.2,19.3-7.6,20.9-18.1c0.3-2.2,0.3-4.3,0.3-6.2c0-0.4,0-0.9,0-1.3l0-33.1
			c0-42.4,0-86.1,0-129.2c0-17.3-7.9-25.1-25.5-25.1l-91.9,0c-128.2,0-260.8,0-391.1-0.2c-0.1,0-0.1,0-0.2,0
			c-8.3,0-18.8,1.4-26.7,11.9c-0.7,1-1.1,2.1-1.1,3.3v846.4c0,1.2,0.4,2.3,1.1,3.3c7.9,10.5,18.4,11.9,26.7,11.9c0.1,0,0.1,0,0.2,0
			c180.4-0.3,338.1-0.3,482,0c0,0,0.1,0,0.1,0c8.6,0,15.3-2.3,19.8-6.9c4.5-4.5,6.8-11.1,6.7-19.4
			C584.6,882.4,584.7,847.3,584.7,813.3z"/>
	</g>
</g>
<g id="Thumbs_Up" class="st0">
	<path class="st6" d="M980.1,457.1c0-42.9-34.9-77.7-77.7-77.7H619.9c16.5-45,44.7-135.3,29.1-191.1C624.7,101.7,574,95,559.1,95
		c-36.3,0-64.8,31-64.8,70.6c0,135.6-130.1,285.3-213.8,306.6v-34.6c0-10.7-8.7-19.4-19.5-19.4H66.7c-10.7,0-19.4,8.7-19.4,19.4
		v466.4c0,10.7,8.7,19.4,19.4,19.4H261c10.7,0,19.4-8.7,19.4-19.4v-54.9c38.5,6.1,69.3,12,95,17.3c50.6,10.5,87.2,18.1,157.7,18.1
		h252.6c51.6,0,77.7-19.6,77.7-58.3c0-16-4.9-30.9-13.1-43.2c30.2-10.6,52-39.5,52-73.4c0-16-4.9-30.9-13.1-43.2
		c30.2-10.6,52-39.5,52-73.4c0-16.6-5.2-32-14.1-44.6C959.7,532.8,980.1,488.5,980.1,457.1z M241.6,884.7H86.1V457.1h155.5V884.7z
		 M902.3,515.4h-38.9c-10.7,0-19.4,8.7-19.4,19.4s8.7,19.4,19.4,19.4c21.4,0,38.9,17.5,38.9,38.9c0,21.4-17.5,38.9-38.9,38.9h-38.9
		c-10.7,0-19.4,8.7-19.4,19.4s8.7,19.4,19.4,19.4c21.4,0,38.9,17.5,38.9,38.9c0,21.4-17.5,38.9-38.9,38.9h-38.9
		c-10.7,0-19.4,8.7-19.4,19.4s8.7,19.4,19.4,19.4c21.4,0,38.9,17.5,38.9,38.9c0,9.1,0,19.4-38.9,19.4H533.1
		c-66.5,0-101.4-7.3-149.8-17.3c-27.9-5.8-59.2-12.3-102.8-19V513.5c106.7-20,252.6-195.2,252.6-347.9c0-38.6,52.8-58.1,78.5,33.2
		c14.4,51.3-22.6,156.2-38,192.4c-2.6,6-1.9,12.9,1.6,18.3c3.6,5.5,9.7,8.7,16.2,8.7h310.9c21.4,0,38.9,17.5,38.9,38.9
		C941.2,481.2,921.1,515.4,902.3,515.4z"/>
	<circle class="st1" cx="183.3" cy="826.4" r="19.4"/>
</g>
<g id="Search" class="st0">
	<path class="st1" d="M950.2,950.3c-11.3,11.1-29.6,11.1-40.9,0L677.7,722.5c-64.6,51.6-146.9,82.6-236.6,82.6
		c-207.6,0-375.8-165.6-375.8-369.8S233.6,65.3,441.2,65.3C648.8,65.3,817,230.9,817,435.2c0,95.5-37.1,182.3-97.5,247.9l230.6,227
		C961.5,921.2,961.5,939.2,950.2,950.3z M441.2,122.2c-175.6,0-318,140.1-318,313c0,172.8,142.4,313,318,313
		c175.6,0,318-140.1,318-313C759.2,262.4,616.8,122.2,441.2,122.2z"/>
</g>
<g id="Chevron_-_Left" class="st0">
	<path class="st7" d="M711.7,205.5L377,511.3l334.7,305.8c11.7,11.6,11.7,30.5,0,42.2c-11.7,11.7-30.6,11.7-42.3,0L313.1,533.9
		c-6.2-6.2-8.9-14.5-8.5-22.6c-0.4-8.1,2.2-16.4,8.5-22.6l356.2-325.4c11.7-11.7,30.6-11.7,42.3,0
		C723.4,175,723.4,193.9,711.7,205.5z"/>
</g>
<g id="Chevron_-_Right" class="st0">
	<path class="st7" d="M712.6,533.9l-357,325.3c-11.7,11.7-30.7,11.7-42.4,0c-11.7-11.6-11.7-30.5,0-42.2l335.5-305.8L313.2,205.5
		c-11.7-11.6-11.7-30.5,0-42.2c11.7-11.7,30.7-11.7,42.4,0l357,325.4c6.2,6.2,8.9,14.5,8.5,22.6
		C721.5,519.4,718.9,527.7,712.6,533.9z"/>
</g>
<g id="Chevron_-_Up" class="st0">
	<path class="st7" d="M860.4,711.5c-11.6,11.7-30.5,11.7-42.2,0L512.4,376.8L206.7,711.5c-11.6,11.7-30.5,11.7-42.2,0
		c-11.6-11.7-11.6-30.6,0-42.3L489.8,313c6.2-6.2,14.5-8.9,22.6-8.5c8.1-0.4,16.4,2.2,22.6,8.5l325.3,356.2
		C872.1,680.8,872.1,699.8,860.4,711.5z"/>
</g>
<g id="Chevron_-_Down" class="st0">
	<path class="st7" d="M860.4,354.5L535,711.5c-6.2,6.2-14.5,8.9-22.6,8.5c-8.1,0.4-16.4-2.3-22.6-8.5l-325.4-357
		c-11.7-11.7-11.7-30.7,0-42.5c11.6-11.7,30.5-11.7,42.2,0l305.7,335.5L818.2,312c11.6-11.7,30.5-11.7,42.2,0
		C872.1,323.8,872.1,342.8,860.4,354.5z"/>
</g>
<g id="Subtract_-_Circle" class="st0">
	<path class="st7" d="M512.9,987.5c-262.8,0-475.8-213-475.8-475.8C37.1,249,250.1,36,512.9,36c262.8,0,475.8,213,475.8,475.8
		C988.6,774.5,775.6,987.5,512.9,987.5z M512.9,95.5C283,95.5,96.6,281.9,96.6,511.8C96.6,741.7,283,928,512.9,928
		c229.9,0,416.3-186.4,416.3-416.3C929.2,281.9,742.8,95.5,512.9,95.5z M691.3,541.5H334.5c-16.4,0-29.7-13.3-29.7-29.7
		c0-16.4,13.3-29.7,29.7-29.7h356.8c16.4,0,29.7,13.3,29.7,29.7C721,528.2,707.7,541.5,691.3,541.5z"/>
</g>
<g id="Add_-_Circle" class="st0">
	<path class="st7" d="M512.9,987.5c-262.8,0-475.8-213-475.8-475.8C37.1,249,250.1,36,512.9,36c262.8,0,475.8,213,475.8,475.8
		C988.6,774.5,775.6,987.5,512.9,987.5z M512.9,95.5C283,95.5,96.6,281.9,96.6,511.8C96.6,741.7,283,928,512.9,928
		c229.9,0,416.3-186.4,416.3-416.3C929.2,281.9,742.8,95.5,512.9,95.5z M691.3,541.5H542.6v148.7c0,16.4-13.3,29.7-29.7,29.7
		c-16.4,0-29.7-13.3-29.7-29.7V541.5H334.5c-16.4,0-29.7-13.3-29.7-29.7c0-16.4,13.3-29.7,29.7-29.7h148.7V333.3
		c0-16.4,13.3-29.7,29.7-29.7c16.4,0,29.7,13.3,29.7,29.7V482h148.7c16.4,0,29.7,13.3,29.7,29.7C721,528.2,707.7,541.5,691.3,541.5z
		"/>
</g>
<g id="Delete_-_Circle" class="st0">
	<path class="st7" d="M512.9,987.5c-262.8,0-475.8-213-475.8-475.8C37.1,249,250.1,36,512.9,36c262.8,0,475.8,213,475.8,475.8
		C988.6,774.5,775.6,987.5,512.9,987.5z M512.9,95.5C283,95.5,96.6,281.9,96.6,511.8C96.6,741.7,283,928,512.9,928
		c229.9,0,416.3-186.4,416.3-416.3C929.2,281.9,742.8,95.5,512.9,95.5z M555.1,511.9l126,126c11.6,11.6,11.6,30.5,0,42.1
		c-11.6,11.6-30.5,11.6-42.1,0l-126-126L386.2,680.8c-11.7,11.7-30.7,11.7-42.4,0c-11.7-11.7-11.7-30.7,0-42.4l126.8-126.9l-126-126
		c-11.6-11.6-11.6-30.5,0-42c11.6-11.6,30.4-11.6,42,0l126,126l127.8-127.8c11.7-11.7,30.7-11.7,42.4,0c11.7,11.7,11.7,30.7,0,42.4
		L555.1,511.9z"/>
</g>
<g id="Check_-_Square" class="st0">
	<g id="_x34__7_" class="st3">
		<g>
			<path class="st8" d="M692.1,305.6c-14.2-8.2-32.4-3.3-40.6,10.9L461.3,645.9l-106.4-98.1c-11.2-12-30.1-12.6-42-1.4
				c-12,11.2-12.6,30-1.4,42l135.9,125.4c11.2,12,30,12.6,42,1.4c3.6-3.4,213.5-368.9,213.5-368.9
				C711.2,332,706.3,313.9,692.1,305.6z M869.7,36H156.1C90.4,36,37.1,89.3,37.1,154.9v713.6c0,65.7,53.3,118.9,118.9,118.9h713.6
				c65.7,0,118.9-53.3,118.9-118.9V154.9C988.6,89.3,935.4,36,869.7,36z M929.2,868.6c0,32.8-26.6,59.5-59.5,59.5H156.1
				c-32.8,0-59.5-26.6-59.5-59.5V154.9c0-32.8,26.6-59.5,59.5-59.5h713.6c32.8,0,59.5,26.6,59.5,59.5V868.6z"/>
		</g>
	</g>
</g>
<g id="Check_-_Square_copy" class="st0">
	<g id="_x34__2_" class="st3">
		<g>
			<path class="st8" d="M869.7,36H156.1C90.4,36,37.1,89.3,37.1,154.9v713.6c0,65.7,53.3,118.9,118.9,118.9h713.6
				c65.7,0,118.9-53.3,118.9-118.9V154.9C988.6,89.3,935.4,36,869.7,36z M929.2,868.6c0,32.8-26.6,59.5-59.5,59.5H156.1
				c-32.8,0-59.5-26.6-59.5-59.5V154.9c0-32.8,26.6-59.5,59.5-59.5h713.6c32.8,0,59.5,26.6,59.5,59.5V868.6z"/>
		</g>
	</g>
	<polyline class="st9" points="275.8,490 442.5,656.7 750,349.3 	"/>
</g>
<g id="Checkbox" class="st0">
	<path class="st7" d="M512.9,987.5c-262.7,0-475.8-213-475.8-475.8C37.1,249,250.1,36,512.9,36s475.8,213,475.8,475.8
		C988.6,774.5,775.6,987.5,512.9,987.5z M512.9,95.5C283,95.5,96.6,281.8,96.6,511.8S283,928,512.9,928s416.3-186.4,416.3-416.3
		S742.8,95.5,512.9,95.5z M703,346.3c8.2-14.2,3.3-32.4-10.9-40.6c-14.2-8.2-32.4-3.3-40.6,10.9L461.3,645.9l-106.4-98.1
		c-11.2-12-30.1-12.6-42-1.4c-12,11.2-12.6,30.1-1.4,42l135.9,125.4c11.2,12,30,12.6,42,1.4C493.1,711.8,703,346.3,703,346.3z"/>
</g>
<g id="Checkbox_copy" class="st0">
	<path class="st7" d="M512.9,987.5c-262.7,0-475.8-213-475.8-475.8C37.1,249,250.1,36,512.9,36s475.8,213,475.8,475.8
		C988.6,774.5,775.6,987.5,512.9,987.5z M512.9,95.5C283,95.5,96.6,281.8,96.6,511.8S283,928,512.9,928s416.3-186.4,416.3-416.3
		S742.8,95.5,512.9,95.5z"/>
	<polyline class="st9" points="275.8,490 442.5,656.7 750,349.3 	"/>
</g>
<g id="Shopping_Cart" class="st0">
	<g class="st3">
		<circle class="st10" cx="770.5" cy="780.6" r="60"/>
		<circle class="st10" cx="330.5" cy="780.6" r="60"/>
		<path class="st10" d="M68.6,183.4h140l121.8,537.1h440.1 M305.5,611l535.8-2.7l109.3-327.8H230.4"/>
	</g>
</g>
<g id="Refresh" class="st0">
	<g class="st3">
		<path class="st10" d="M914.7,127.3v237.8H676.9 M83,364.9C141.8,198.8,300.4,79.8,486.7,79.8s365.2,117,424,283.3 M106.2,884.9
			V647.1h237.8 M937.8,647.2C879,813.4,720.5,932.4,534.1,932.4s-365.2-117.1-424-283.3"/>
	</g>
</g>
<g id="Bookmark" class="st0">
	<g id="_x37__20_" class="st3">
		<g>
			<path class="st8" d="M723,74.7H306.7c-65.7,0-118.9,53.3-118.9,118.9v654.2c0,65.7,53.3,118.9,118.9,118.9l208.1-208.1L723,966.8
				c65.7,0,118.9-53.3,118.9-118.9V193.7C842,128,788.7,74.7,723,74.7z M782.5,847.8c0,32.8-26.6,59.5-59.5,59.5L514.9,699.2
				L306.7,907.3c-32.8,0-59.5-26.6-59.5-59.5V193.7c0-32.8,26.6-59.5,59.5-59.5H723c32.8,0,59.5,26.6,59.5,59.5V847.8z"/>
		</g>
	</g>
</g>
<g id="Compass" class="st0">
	<path class="st7" d="M512.9,987.5c-262.8,0-475.8-213-475.8-475.8C37.1,249,250.1,36,512.9,36c262.8,0,475.8,213,475.8,475.8
		C988.6,774.5,775.6,987.5,512.9,987.5z M512.9,95.5C283,95.5,96.6,281.9,96.6,511.8C96.6,741.7,283,928,512.9,928
		c229.9,0,416.3-186.4,416.3-416.3C929.2,281.9,742.8,95.5,512.9,95.5z"/>
	<path class="st11" d="M454.7,802.4V569.9H222.3l484.3-251.8L454.7,802.4z"/>
</g>
<g id="Paperclip" class="st0">
	<g id="_x33__3_" class="st3">
		<path class="st12" d="M705,209.4v544.9c-12.8,102.4-84.3,181.6-190.1,181.6s-177.3-79.3-190.1-181.6v-493
			c0-86,52.3-155.7,138.2-155.7c80.2,0,128.8,60.7,137.3,138.7l0.9,484c0,57.3-29,103.8-86.3,103.8c-57.3,0-86.3-46.5-86.3-103.8
			V313.2"/>
	</g>
</g>
<g id="Location_Marker" class="st0">
	<circle class="st13" cx="514.9" cy="401.8" r="146"/>
	<path class="st13" d="M853,408.1c0,186.7-338.1,563.5-338.1,563.5S176.8,594.8,176.8,408.1S328.1,69.9,514.9,69.9
		S853,221.3,853,408.1z"/>
</g>
<g id="Map" class="st0">
	<path class="st7" d="M277,847.8L514.9,937l237.9-178.4L990.6,937V223.4L752.8,45L514.9,223.4L277,134.2L39.1,282.9v713.6L277,847.8
		z M931.2,238.3L752.8,104.5L514.9,282.9L277,193.7L98.6,305.2v594.7L277,788.4l237.9,89.2l237.9-178.4L931.2,833V238.3z
		 M752.8,312.6c0-16.4,13.3-29.7,29.7-29.7c16.4,0,29.7,13.3,29.7,29.7v237.9c0,16.4-13.3,29.7-29.7,29.7
		c-16.4,0-29.7-13.3-29.7-29.7V312.6z M544.6,669.4c-16.4,0-29.7-13.3-29.7-29.7V461.3c0-16.4,13.3-29.7,29.7-29.7
		c16.4,0,29.7,13.3,29.7,29.7v178.4C574.4,656.1,561,669.4,544.6,669.4z M306.7,699.2c-16.4,0-29.7-13.3-29.7-29.7V372.1
		c0-16.4,13.3-29.7,29.7-29.7c16.4,0,29.7,13.3,29.7,29.7v297.3C336.5,685.9,323.2,699.2,306.7,699.2z"/>
</g>
<g id="Map_copy" class="st0">
	<circle class="st7" cx="306.6" cy="186.5" r="62.2"/>
	<path class="st13" d="M450.7,189.1c0,79.6-144.1,240.2-144.1,240.2S162.5,268.7,162.5,189.1S227,45,306.6,45
		S450.7,109.5,450.7,189.1z"/>
	<path class="st7" d="M752.8,45c0,0-195.3,147.8-237.9,178.4s-11.7,68.2,0,59.5s237.9-178.4,237.9-178.4l180.4,134.8V834
		L752.8,699.2L514.9,877.6L277,788.4L96.6,900.9V306.2l18-11c36.4-22.2,6.1-63.3-23.4-44.9s-50.1,32.6-50.1,32.6v713.6L277,847.8
		L514.9,937l237.9-178.4L988.6,937V223.4L752.8,45z"/>
	<line class="st11" x1="306.6" y1="530.8" x2="306.6" y2="658.6"/>
	<line class="st11" x1="545.1" y1="463.1" x2="545.1" y2="705"/>
	<line class="st11" x1="783.6" y1="312.6" x2="783.6" y2="561.6"/>
</g>
<g id="Layer_1" class="st0">
	<g class="st3">
		<path class="st10" d="M842.4,572.1h129.9V451.9h-130c-8.4-34.7-22.1-87.3-40.2-117l91.9-91.9L780.9,129.8l-92,91.9
			c-29.6-18.1-82.2-31.7-116.9-40.1v-130H451.9v130c-34.7,8.4-87.3,22.1-116.9,40.1l-92-91.9L129.8,243.1l92,91.9
			c-18.1,29.6-31.8,82.2-40.2,116.9H51.6v120.1h129.9c8.4,34.7,22.1,87.4,40.2,116.9l-92,92l113.3,113.2l91.9-92
			c29.7,18.2,82.3,31.9,117,40.3v129.9h120.1V842.4c34.7-8.4,87.3-22.1,116.9-40.2l92,91.9l113.2-113.2l-91.9-92
			C820.3,659.4,834,606.8,842.4,572.1z"/>
		<circle class="st10" cx="512" cy="512" r="180.2"/>
	</g>
</g>
<g id="Guides_-_20pt_stroke" class="st0">
	<line class="st14" x1="-927" y1="655.7" x2="-927" y2="1057.7"/>
	<line class="st14" x1="-187" y1="168.1" x2="-187" y2="570.2"/>
	<line class="st14" x1="-1121.8" y1="671.5" x2="-1406" y2="955.8"/>
	<ellipse class="st14" cx="-1022.8" cy="-20.4" rx="447.5" ry="443"/>
	<line class="st14" x1="-684.3" y1="-416" x2="-885.4" y2="-67.8"/>
	<polyline class="st14" points="-927,190.1 -784.9,332.3 -522.8,70.2 	"/>
</g>
</svg>
